%
M48
M72
T01C0.02362
T02C0.03937
T03C0.04000
T04C0.09100
%
T01
X89524Y234933
X102524Y197933
X106524Y189933
X119524Y197933
X147524Y203933
X163524Y179933
X147524Y174933
X142524Y161933
X107524Y158933
X141524Y122933
X111524Y118933
X108524Y79933
X126524Y63933
X141524Y76933
X161524Y76933
X186524Y77933
X218524Y88933
X227524Y76933
X219524Y59933
X223524Y104933
X235524Y117933
X276524Y113933
X239524Y149933
X245524Y156933
X235524Y177933
X268524Y196933
X237524Y204933
X191524Y201933
X197524Y149933
X176524Y144933
X177524Y123933
X175524Y104933
X105524Y30933
X291524Y165933
X286524Y53933
T02
X132524Y213933
X132524Y204933
X132524Y195933
X207524Y53933
X197524Y53933
X187524Y53933
X177524Y53933
X167524Y53933
X157524Y53933
X132524Y53933
X122524Y53933
X112524Y53933
X102524Y53933
X102524Y43933
X112524Y43933
X122524Y43933
T03
X102524Y233933
X112524Y233933
X122524Y234933
X132524Y233933
X142524Y234933
X152524Y233933
X162524Y234933
X172524Y233933
X182524Y234933
X192524Y233933
X182524Y224933
X192524Y223933
X207524Y224933
X217524Y223933
X227524Y224933
X237524Y223933
X247524Y224933
X257524Y223933
X267524Y224933
X257524Y233933
X267524Y234933
X277524Y233933
X277524Y223933
X247524Y234933
X237524Y233933
X227524Y234933
X217524Y233933
X207524Y234933
X172524Y223933
X162524Y224933
X152524Y223933
X142524Y224933
X132524Y223933
X122524Y224933
X112524Y223933
X102524Y223933
X212524Y139633
X212524Y128233
X242524Y128233
X242524Y139633
X217024Y163933
X218024Y173933
X217024Y183933
X218024Y193933
X277524Y178933
X277524Y168933
X277524Y43933
X277524Y33933
X267524Y32933
X257524Y33933
X247524Y32933
X237524Y33933
X227524Y32933
X227524Y42933
X237524Y43933
X247524Y42933
X257524Y43933
X267524Y42933
X207524Y43933
X197524Y42933
X187524Y43933
X177524Y42933
X167524Y43933
X157524Y42933
X147524Y43933
X137524Y42933
X137524Y32933
X147524Y33933
X157524Y32933
X167524Y33933
X177524Y32933
X187524Y33933
X197524Y32933
X207524Y33933
T04
X257524Y109783
X257524Y58083
M30
