G75*
%MOIN*%
%OFA0B0*%
%FSLAX25Y25*%
%IPPOS*%
%LPD*%
%AMOC8*
5,1,8,0,0,1.08239X$1,22.5*
%
%ADD10C,0.00400*%
%ADD11C,0.00300*%
%ADD12C,0.00500*%
%ADD13C,0.00600*%
%ADD14C,0.02400*%
%ADD15C,0.00800*%
%ADD16R,0.00100X0.01600*%
%ADD17R,0.00100X0.03600*%
%ADD18R,0.00100X0.04800*%
%ADD19R,0.00100X0.05800*%
%ADD20R,0.00100X0.06600*%
%ADD21R,0.00100X0.07300*%
%ADD22R,0.00100X0.08000*%
%ADD23R,0.00100X0.08600*%
%ADD24R,0.00100X0.09100*%
%ADD25R,0.00100X0.09600*%
%ADD26R,0.00100X0.10100*%
%ADD27R,0.00100X0.10600*%
%ADD28R,0.00100X0.11000*%
%ADD29R,0.00100X0.11400*%
%ADD30R,0.00100X0.11800*%
%ADD31R,0.00100X0.12200*%
%ADD32R,0.00100X0.12600*%
%ADD33R,0.00100X0.12900*%
%ADD34R,0.00100X0.13200*%
%ADD35R,0.00100X0.13600*%
%ADD36R,0.00100X0.13800*%
%ADD37R,0.00100X0.14200*%
%ADD38R,0.00100X0.14400*%
%ADD39R,0.00100X0.14800*%
%ADD40R,0.00100X0.15000*%
%ADD41R,0.00100X0.15300*%
%ADD42R,0.00100X0.15600*%
%ADD43R,0.00100X0.15800*%
%ADD44R,0.00100X0.16100*%
%ADD45R,0.00100X0.16400*%
%ADD46R,0.00100X0.16600*%
%ADD47R,0.00100X0.16800*%
%ADD48R,0.00100X0.17000*%
%ADD49R,0.00100X0.17200*%
%ADD50R,0.00100X0.17500*%
%ADD51R,0.00100X0.17700*%
%ADD52R,0.00100X0.17900*%
%ADD53R,0.00100X0.18100*%
%ADD54R,0.00100X0.18300*%
%ADD55R,0.00100X0.18500*%
%ADD56R,0.00100X0.18700*%
%ADD57R,0.00100X0.18900*%
%ADD58R,0.00100X0.19000*%
%ADD59R,0.00100X0.04900*%
%ADD60R,0.00100X0.09300*%
%ADD61R,0.00100X0.05000*%
%ADD62R,0.00100X0.09400*%
%ADD63R,0.00100X0.05100*%
%ADD64R,0.00100X0.09500*%
%ADD65R,0.00100X0.05200*%
%ADD66R,0.00100X0.05300*%
%ADD67R,0.00100X0.09700*%
%ADD68R,0.00100X0.09800*%
%ADD69R,0.00100X0.05400*%
%ADD70R,0.00100X0.05500*%
%ADD71R,0.00100X0.09900*%
%ADD72R,0.00100X0.05600*%
%ADD73R,0.00100X0.10000*%
%ADD74R,0.00100X0.05700*%
%ADD75R,0.00100X0.10200*%
%ADD76R,0.00100X0.06900*%
%ADD77R,0.00100X0.11300*%
%ADD78R,0.00100X0.07200*%
%ADD79R,0.00100X0.11600*%
%ADD80R,0.00100X0.07400*%
%ADD81R,0.00100X0.07500*%
%ADD82R,0.00100X0.11900*%
%ADD83R,0.00100X0.07700*%
%ADD84R,0.00100X0.12000*%
%ADD85R,0.00100X0.07800*%
%ADD86R,0.00100X0.07900*%
%ADD87R,0.00100X0.12300*%
%ADD88R,0.00100X0.12400*%
%ADD89R,0.00100X0.12500*%
%ADD90R,0.00100X0.08100*%
%ADD91R,0.00100X0.08200*%
%ADD92R,0.00100X0.08300*%
%ADD93R,0.00100X0.12700*%
%ADD94R,0.00100X0.08400*%
%ADD95R,0.00100X0.12800*%
%ADD96R,0.00100X0.08500*%
%ADD97R,0.00100X0.13000*%
%ADD98R,0.00100X0.13100*%
%ADD99R,0.00100X0.08700*%
%ADD100R,0.00100X0.08800*%
%ADD101R,0.00100X0.08900*%
%ADD102R,0.00100X0.13300*%
%ADD103R,0.00100X0.13400*%
%ADD104R,0.00100X0.09000*%
%ADD105R,0.00100X0.13500*%
%ADD106R,0.00100X0.09200*%
%ADD107R,0.00100X0.13700*%
%ADD108R,0.00100X0.01100*%
%ADD109R,0.00100X0.10800*%
%ADD110R,0.00100X0.00600*%
%ADD111R,0.00100X0.10400*%
%ADD112R,0.00100X0.00300*%
%ADD113R,0.00100X0.00700*%
%ADD114R,0.00100X0.01800*%
%ADD115R,0.00100X0.02400*%
%ADD116R,0.00100X0.02800*%
%ADD117R,0.00100X0.03200*%
%ADD118R,0.00100X0.03900*%
%ADD119R,0.00100X0.04100*%
%ADD120R,0.00100X0.07600*%
%ADD121R,0.00100X0.04200*%
%ADD122R,0.00100X0.04300*%
%ADD123R,0.00100X0.04400*%
%ADD124R,0.00100X0.04500*%
%ADD125R,0.00100X0.04600*%
%ADD126R,0.00100X0.04700*%
%ADD127R,0.00100X0.07100*%
%ADD128R,0.00100X0.07000*%
%ADD129R,0.00100X0.03700*%
%ADD130R,0.00100X0.03800*%
%ADD131R,0.00100X0.06800*%
%ADD132R,0.00100X0.16900*%
%ADD133R,0.00100X0.06700*%
%ADD134R,0.00100X0.16700*%
%ADD135R,0.00100X0.16500*%
%ADD136R,0.00100X0.11700*%
%ADD137R,0.00100X0.11500*%
%ADD138R,0.00100X0.11200*%
%ADD139R,0.00100X0.11100*%
%ADD140R,0.00100X0.10900*%
%ADD141R,0.00100X0.10700*%
%ADD142R,0.00100X0.10500*%
%ADD143R,0.00100X0.04000*%
%ADD144R,0.00100X0.00500*%
%ADD145R,0.00100X0.02900*%
%ADD146R,0.00100X0.02700*%
%ADD147R,0.00100X0.02500*%
%ADD148R,0.00100X0.02300*%
%ADD149R,0.00100X0.02200*%
%ADD150R,0.00100X0.02000*%
%ADD151R,0.00100X0.01700*%
%ADD152R,0.00100X0.01500*%
%ADD153R,0.00100X0.01300*%
%ADD154R,0.00100X0.10300*%
%ADD155R,0.00100X0.00800*%
%ADD156R,0.00100X0.00200*%
%ADD157R,0.00100X0.16200*%
%ADD158R,0.00100X0.16000*%
%ADD159R,0.00100X0.15500*%
%ADD160R,0.00100X0.15200*%
%ADD161R,0.00100X0.14700*%
%ADD162R,0.00100X0.14100*%
%ADD163R,0.00100X0.06400*%
%ADD164R,0.00100X0.03100*%
D10*
X0066089Y0071133D02*
X0070993Y0071133D01*
X0070993Y0073585D01*
X0070176Y0074403D01*
X0068541Y0074403D01*
X0067724Y0073585D01*
X0067724Y0071133D01*
X0068541Y0076013D02*
X0069358Y0076831D01*
X0069358Y0079283D01*
X0070176Y0079283D02*
X0067724Y0079283D01*
X0067724Y0076831D01*
X0068541Y0076013D01*
X0070993Y0076831D02*
X0070993Y0078465D01*
X0070176Y0079283D01*
X0070993Y0080893D02*
X0067724Y0084163D01*
X0067724Y0085774D02*
X0067724Y0087408D01*
X0067724Y0086591D02*
X0070993Y0086591D01*
X0070993Y0085774D01*
X0070993Y0084163D02*
X0067724Y0080893D01*
X0072628Y0086591D02*
X0073445Y0086591D01*
X0070993Y0089027D02*
X0070993Y0091479D01*
X0070176Y0092296D01*
X0067724Y0092296D01*
X0067724Y0093907D02*
X0067724Y0096359D01*
X0068541Y0097177D01*
X0069358Y0096359D01*
X0069358Y0094725D01*
X0070176Y0093907D01*
X0070993Y0094725D01*
X0070993Y0097177D01*
X0070993Y0098787D02*
X0070993Y0100422D01*
X0071810Y0099605D02*
X0068541Y0099605D01*
X0067724Y0100422D01*
X0067724Y0102041D02*
X0070993Y0102041D01*
X0069358Y0102041D02*
X0070993Y0103676D01*
X0070993Y0104493D01*
X0070993Y0106108D02*
X0068541Y0106108D01*
X0067724Y0106925D01*
X0067724Y0109377D01*
X0070993Y0109377D01*
X0070993Y0110988D02*
X0067724Y0110988D01*
X0067724Y0112622D02*
X0070176Y0112622D01*
X0070993Y0113440D01*
X0070176Y0114257D01*
X0067724Y0114257D01*
X0068541Y0115868D02*
X0070176Y0115868D01*
X0070993Y0116685D01*
X0070993Y0118320D01*
X0070176Y0119137D01*
X0069358Y0119137D01*
X0069358Y0115868D01*
X0068541Y0115868D02*
X0067724Y0116685D01*
X0067724Y0118320D01*
X0067724Y0120748D02*
X0070993Y0120748D01*
X0070993Y0123200D01*
X0070176Y0124018D01*
X0067724Y0124018D01*
X0068541Y0126446D02*
X0067724Y0127263D01*
X0068541Y0126446D02*
X0071810Y0126446D01*
X0070993Y0127263D02*
X0070993Y0125628D01*
X0070176Y0128882D02*
X0070993Y0129699D01*
X0070993Y0132151D01*
X0069358Y0131334D02*
X0069358Y0129699D01*
X0070176Y0128882D01*
X0067724Y0128882D02*
X0067724Y0131334D01*
X0068541Y0132151D01*
X0069358Y0131334D01*
X0068541Y0133762D02*
X0068541Y0134579D01*
X0067724Y0134579D01*
X0067724Y0133762D01*
X0068541Y0133762D01*
X0068541Y0136202D02*
X0067724Y0137019D01*
X0067724Y0139471D01*
X0068541Y0141082D02*
X0067724Y0141899D01*
X0067724Y0143534D01*
X0068541Y0144352D01*
X0070176Y0144352D01*
X0070993Y0143534D01*
X0070993Y0141899D01*
X0070176Y0141082D01*
X0068541Y0141082D01*
X0070993Y0139471D02*
X0070993Y0137019D01*
X0070176Y0136202D01*
X0068541Y0136202D01*
X0067724Y0145962D02*
X0070993Y0145962D01*
X0070993Y0146780D01*
X0070176Y0147597D01*
X0070993Y0148414D01*
X0070176Y0149232D01*
X0067724Y0149232D01*
X0067724Y0150842D02*
X0072628Y0154112D01*
X0070993Y0155723D02*
X0070993Y0158175D01*
X0070176Y0158992D01*
X0068541Y0158992D01*
X0067724Y0158175D01*
X0067724Y0155723D01*
X0066089Y0155723D02*
X0070993Y0155723D01*
X0070993Y0160603D02*
X0067724Y0160603D01*
X0069358Y0160603D02*
X0070993Y0162238D01*
X0070993Y0163055D01*
X0070176Y0164670D02*
X0068541Y0164670D01*
X0067724Y0165487D01*
X0067724Y0167122D01*
X0068541Y0167939D01*
X0070176Y0167939D01*
X0070993Y0167122D01*
X0070993Y0165487D01*
X0070176Y0164670D01*
X0070176Y0169550D02*
X0068541Y0169550D01*
X0067724Y0170367D01*
X0067724Y0172819D01*
X0072628Y0172819D01*
X0070993Y0172819D02*
X0070993Y0170367D01*
X0070176Y0169550D01*
X0070993Y0174430D02*
X0068541Y0174430D01*
X0067724Y0175247D01*
X0067724Y0177699D01*
X0070993Y0177699D01*
X0070176Y0179310D02*
X0068541Y0179310D01*
X0067724Y0180127D01*
X0067724Y0182580D01*
X0068541Y0185008D02*
X0067724Y0185825D01*
X0068541Y0185008D02*
X0071810Y0185008D01*
X0070993Y0185825D02*
X0070993Y0184190D01*
X0070993Y0182580D02*
X0070993Y0180127D01*
X0070176Y0179310D01*
X0070176Y0187444D02*
X0070993Y0188261D01*
X0070993Y0190713D01*
X0069358Y0189896D02*
X0069358Y0188261D01*
X0070176Y0187444D01*
X0067724Y0187444D02*
X0067724Y0189896D01*
X0068541Y0190713D01*
X0069358Y0189896D01*
X0067724Y0192324D02*
X0072628Y0195593D01*
X0070993Y0198021D02*
X0070993Y0200474D01*
X0069358Y0199656D02*
X0069358Y0198021D01*
X0070176Y0197204D01*
X0070993Y0198021D01*
X0069358Y0199656D02*
X0068541Y0200474D01*
X0067724Y0199656D01*
X0067724Y0197204D01*
X0067724Y0202084D02*
X0072628Y0202084D01*
X0070993Y0204536D02*
X0069358Y0202084D01*
X0067724Y0204536D01*
X0068541Y0206151D02*
X0067724Y0206968D01*
X0067724Y0209420D01*
X0070993Y0209420D01*
X0070993Y0211031D02*
X0072628Y0212666D01*
X0067724Y0212666D01*
X0067724Y0211031D02*
X0067724Y0214301D01*
X0068541Y0215911D02*
X0067724Y0216729D01*
X0067724Y0218363D01*
X0068541Y0219181D01*
X0070176Y0219181D01*
X0070993Y0218363D01*
X0070993Y0217546D01*
X0070176Y0215911D01*
X0072628Y0215911D01*
X0072628Y0219181D01*
X0071810Y0220792D02*
X0072628Y0221609D01*
X0072628Y0223244D01*
X0071810Y0224061D01*
X0070993Y0224061D01*
X0070176Y0223244D01*
X0069358Y0224061D01*
X0068541Y0224061D01*
X0067724Y0223244D01*
X0067724Y0221609D01*
X0068541Y0220792D01*
X0070176Y0222426D02*
X0070176Y0223244D01*
X0071810Y0225672D02*
X0072628Y0226489D01*
X0072628Y0228124D01*
X0071810Y0228941D01*
X0070993Y0228941D01*
X0070176Y0228124D01*
X0069358Y0228941D01*
X0068541Y0228941D01*
X0067724Y0228124D01*
X0067724Y0226489D01*
X0068541Y0225672D01*
X0070176Y0227306D02*
X0070176Y0228124D01*
X0067724Y0230552D02*
X0072628Y0233821D01*
X0100474Y0215725D02*
X0103209Y0215725D01*
X0104577Y0214357D01*
X0103209Y0212990D01*
X0100474Y0212990D01*
X0101158Y0211582D02*
X0103893Y0211582D01*
X0104577Y0210898D01*
X0104577Y0208846D01*
X0100474Y0208846D01*
X0100474Y0210898D01*
X0101158Y0211582D01*
X0102525Y0212990D02*
X0102525Y0215725D01*
X0110474Y0215725D02*
X0110474Y0212990D01*
X0114577Y0212990D01*
X0113893Y0211582D02*
X0114577Y0210898D01*
X0114577Y0209530D01*
X0113893Y0208846D01*
X0111158Y0208846D01*
X0110474Y0209530D01*
X0110474Y0210898D01*
X0111158Y0211582D01*
X0111158Y0207438D02*
X0110474Y0206754D01*
X0110474Y0205386D01*
X0111158Y0204702D01*
X0112525Y0205386D02*
X0112525Y0206754D01*
X0111841Y0207438D01*
X0111158Y0207438D01*
X0112525Y0205386D02*
X0113209Y0204702D01*
X0113893Y0204702D01*
X0114577Y0205386D01*
X0114577Y0206754D01*
X0113893Y0207438D01*
X0104577Y0206754D02*
X0104577Y0205386D01*
X0103893Y0204702D01*
X0103209Y0204702D01*
X0102525Y0205386D01*
X0102525Y0206754D01*
X0101841Y0207438D01*
X0101158Y0207438D01*
X0100474Y0206754D01*
X0100474Y0205386D01*
X0101158Y0204702D01*
X0103893Y0207438D02*
X0104577Y0206754D01*
X0130474Y0189041D02*
X0131158Y0189725D01*
X0133893Y0189725D01*
X0134577Y0189041D01*
X0134577Y0186990D01*
X0130474Y0186990D01*
X0130474Y0189041D01*
X0130474Y0185582D02*
X0134577Y0185582D01*
X0134577Y0182846D02*
X0130474Y0185582D01*
X0130474Y0182846D02*
X0134577Y0182846D01*
X0133893Y0181438D02*
X0134577Y0180754D01*
X0134577Y0179386D01*
X0133893Y0178702D01*
X0131158Y0178702D01*
X0130474Y0179386D01*
X0130474Y0180754D01*
X0131158Y0181438D01*
X0132525Y0181438D01*
X0132525Y0180070D01*
X0070993Y0206151D02*
X0068541Y0206151D01*
X0067724Y0147597D02*
X0070176Y0147597D01*
X0070176Y0112622D02*
X0070993Y0111805D01*
X0070993Y0110988D01*
X0070993Y0089027D02*
X0067724Y0089027D01*
X0144924Y0070040D02*
X0150128Y0070040D01*
X0150128Y0073509D01*
X0147526Y0071775D02*
X0147526Y0070040D01*
X0150128Y0068353D02*
X0150128Y0064883D01*
X0144924Y0064883D01*
X0144924Y0068353D01*
X0147526Y0066618D02*
X0147526Y0064883D01*
X0147526Y0063197D02*
X0146658Y0062329D01*
X0146658Y0059727D01*
X0144924Y0059727D02*
X0150128Y0059727D01*
X0150128Y0062329D01*
X0149261Y0063197D01*
X0147526Y0063197D01*
X0146658Y0061462D02*
X0144924Y0063197D01*
X0145791Y0058040D02*
X0149261Y0058040D01*
X0150128Y0057173D01*
X0150128Y0055438D01*
X0149261Y0054571D01*
X0145791Y0054571D01*
X0144924Y0055438D01*
X0144924Y0057173D01*
X0145791Y0058040D01*
X0144924Y0052868D02*
X0144924Y0051133D01*
X0144924Y0052000D02*
X0150128Y0052000D01*
X0150128Y0051133D02*
X0150128Y0052868D01*
X0154924Y0060133D02*
X0160128Y0060133D01*
X0160128Y0062735D01*
X0159261Y0063603D01*
X0157526Y0063603D01*
X0156658Y0062735D01*
X0156658Y0060133D01*
X0156658Y0061868D02*
X0154924Y0063603D01*
X0155791Y0065289D02*
X0154924Y0066157D01*
X0154924Y0067892D01*
X0155791Y0068759D01*
X0156658Y0068759D01*
X0157526Y0067892D01*
X0157526Y0066157D01*
X0158393Y0065289D01*
X0159261Y0065289D01*
X0160128Y0066157D01*
X0160128Y0067892D01*
X0159261Y0068759D01*
X0160128Y0070446D02*
X0160128Y0073915D01*
X0160128Y0072181D02*
X0154924Y0072181D01*
X0164924Y0070470D02*
X0164924Y0068735D01*
X0165791Y0067868D01*
X0165791Y0066157D02*
X0164924Y0066157D01*
X0164924Y0065289D01*
X0165791Y0065289D01*
X0165791Y0066157D01*
X0165791Y0063603D02*
X0164924Y0062735D01*
X0164924Y0061000D01*
X0165791Y0060133D01*
X0167526Y0061868D02*
X0167526Y0062735D01*
X0166658Y0063603D01*
X0165791Y0063603D01*
X0167526Y0062735D02*
X0168393Y0063603D01*
X0169261Y0063603D01*
X0170128Y0062735D01*
X0170128Y0061000D01*
X0169261Y0060133D01*
X0174924Y0061000D02*
X0175791Y0060133D01*
X0174924Y0061000D02*
X0174924Y0062735D01*
X0175791Y0063603D01*
X0177526Y0063603D01*
X0178393Y0062735D01*
X0178393Y0061868D01*
X0177526Y0060133D01*
X0180128Y0060133D01*
X0180128Y0063603D01*
X0180128Y0065289D02*
X0176658Y0065289D01*
X0174924Y0067024D01*
X0176658Y0068759D01*
X0180128Y0068759D01*
X0184924Y0068759D02*
X0190128Y0068759D01*
X0190128Y0070446D02*
X0190128Y0073048D01*
X0189261Y0073915D01*
X0185791Y0073915D01*
X0184924Y0073048D01*
X0184924Y0070446D01*
X0190128Y0070446D01*
X0194924Y0070446D02*
X0194924Y0073048D01*
X0195791Y0073915D01*
X0199261Y0073915D01*
X0200128Y0073048D01*
X0200128Y0070446D01*
X0194924Y0070446D01*
X0194924Y0068759D02*
X0200128Y0068759D01*
X0200128Y0065289D02*
X0194924Y0068759D01*
X0194924Y0065289D02*
X0200128Y0065289D01*
X0199261Y0063603D02*
X0200128Y0062735D01*
X0200128Y0061000D01*
X0199261Y0060133D01*
X0195791Y0060133D01*
X0194924Y0061000D01*
X0194924Y0062735D01*
X0195791Y0063603D01*
X0197526Y0063603D01*
X0197526Y0061868D01*
X0204924Y0061868D02*
X0206658Y0063603D01*
X0210128Y0063603D01*
X0210128Y0065289D02*
X0210128Y0067024D01*
X0210128Y0066157D02*
X0204924Y0066157D01*
X0204924Y0067024D02*
X0204924Y0065289D01*
X0204924Y0068727D02*
X0210128Y0068727D01*
X0204924Y0072197D01*
X0210128Y0072197D01*
X0204924Y0061868D02*
X0206658Y0060133D01*
X0210128Y0060133D01*
X0190128Y0061000D02*
X0189261Y0060133D01*
X0185791Y0060133D01*
X0184924Y0061000D01*
X0184924Y0062735D01*
X0185791Y0063603D01*
X0187526Y0063603D01*
X0187526Y0061868D01*
X0189261Y0063603D02*
X0190128Y0062735D01*
X0190128Y0061000D01*
X0190128Y0065289D02*
X0184924Y0065289D01*
X0184924Y0068759D02*
X0190128Y0065289D01*
X0170128Y0068735D02*
X0170128Y0070470D01*
X0169261Y0071337D01*
X0168393Y0071337D01*
X0167526Y0070470D01*
X0166658Y0071337D01*
X0165791Y0071337D01*
X0164924Y0070470D01*
X0167526Y0070470D02*
X0167526Y0069602D01*
X0169261Y0067868D02*
X0170128Y0068735D01*
X0170128Y0073024D02*
X0166658Y0073024D01*
X0164924Y0074759D01*
X0166658Y0076494D01*
X0170128Y0076494D01*
X0222698Y0128068D02*
X0224432Y0126333D01*
X0226167Y0128068D01*
X0226167Y0131538D01*
X0227854Y0131538D02*
X0231324Y0131538D01*
X0231324Y0128935D01*
X0229589Y0129803D01*
X0228721Y0129803D01*
X0227854Y0128935D01*
X0227854Y0127200D01*
X0228721Y0126333D01*
X0230456Y0126333D01*
X0231324Y0127200D01*
X0222698Y0128068D02*
X0222698Y0131538D01*
X0221409Y0136333D02*
X0220541Y0137200D01*
X0220541Y0140670D01*
X0221409Y0141538D01*
X0224011Y0141538D01*
X0224011Y0136333D01*
X0221409Y0136333D01*
X0225698Y0136333D02*
X0225698Y0141538D01*
X0229167Y0141538D02*
X0225698Y0136333D01*
X0229167Y0136333D02*
X0229167Y0141538D01*
X0230854Y0140670D02*
X0231721Y0141538D01*
X0233456Y0141538D01*
X0234324Y0140670D01*
X0234324Y0137200D01*
X0233456Y0136333D01*
X0231721Y0136333D01*
X0230854Y0137200D01*
X0230854Y0138935D01*
X0232589Y0138935D01*
D11*
X0124076Y0205595D02*
X0123042Y0206629D01*
X0120974Y0206629D01*
X0120974Y0207691D02*
X0124076Y0207691D01*
X0124076Y0209242D01*
X0123559Y0209759D01*
X0122525Y0209759D01*
X0122008Y0209242D01*
X0122008Y0207691D01*
X0122008Y0208725D02*
X0120974Y0209759D01*
X0120974Y0210822D02*
X0120974Y0212890D01*
X0120974Y0213952D02*
X0124076Y0213952D01*
X0124076Y0216021D01*
X0122525Y0214987D02*
X0122525Y0213952D01*
X0124076Y0212890D02*
X0124076Y0210822D01*
X0120974Y0210822D01*
X0122525Y0210822D02*
X0122525Y0211856D01*
X0122525Y0206629D02*
X0122525Y0204560D01*
X0123042Y0204560D02*
X0124076Y0205595D01*
X0123042Y0204560D02*
X0120974Y0204560D01*
D12*
X0139474Y0205029D02*
X0139474Y0209099D01*
X0139474Y0207064D02*
X0145579Y0207064D01*
X0143544Y0205029D01*
X0149474Y0205029D02*
X0149474Y0209099D01*
X0149474Y0211106D02*
X0153544Y0215176D01*
X0154561Y0215176D01*
X0155579Y0214158D01*
X0155579Y0212123D01*
X0154561Y0211106D01*
X0155579Y0207064D02*
X0149474Y0207064D01*
X0149474Y0211106D02*
X0149474Y0215176D01*
X0145579Y0214158D02*
X0145579Y0212123D01*
X0144561Y0211106D01*
X0142526Y0213141D02*
X0142526Y0214158D01*
X0141509Y0215176D01*
X0140491Y0215176D01*
X0139474Y0214158D01*
X0139474Y0212123D01*
X0140491Y0211106D01*
X0142526Y0214158D02*
X0143544Y0215176D01*
X0144561Y0215176D01*
X0145579Y0214158D01*
X0153544Y0205029D02*
X0155579Y0207064D01*
X0159474Y0207064D02*
X0165579Y0207064D01*
X0163544Y0205029D01*
X0169474Y0205029D02*
X0169474Y0209099D01*
X0169474Y0207064D02*
X0175579Y0207064D01*
X0173544Y0205029D01*
X0174561Y0211106D02*
X0170491Y0211106D01*
X0174561Y0215176D01*
X0170491Y0215176D01*
X0169474Y0214158D01*
X0169474Y0212123D01*
X0170491Y0211106D01*
X0174561Y0211106D02*
X0175579Y0212123D01*
X0175579Y0214158D01*
X0174561Y0215176D01*
X0165579Y0213141D02*
X0163544Y0211106D01*
X0165579Y0213141D02*
X0159474Y0213141D01*
X0159474Y0211106D02*
X0159474Y0215176D01*
X0159474Y0209099D02*
X0159474Y0205029D01*
X0082663Y0195921D02*
X0081679Y0195921D01*
X0079710Y0195921D02*
X0075774Y0195921D01*
X0075774Y0194937D02*
X0075774Y0196905D01*
X0076758Y0198866D02*
X0078726Y0198866D01*
X0079710Y0199850D01*
X0079710Y0201818D01*
X0078726Y0202802D01*
X0077742Y0202802D01*
X0077742Y0198866D01*
X0076758Y0198866D02*
X0075774Y0199850D01*
X0075774Y0201818D01*
X0075774Y0204759D02*
X0075774Y0206727D01*
X0075774Y0205743D02*
X0081679Y0205743D01*
X0081679Y0204759D01*
X0078726Y0208687D02*
X0079710Y0209671D01*
X0079710Y0212624D01*
X0081679Y0212624D02*
X0075774Y0212624D01*
X0075774Y0209671D01*
X0076758Y0208687D01*
X0078726Y0208687D01*
X0079710Y0220473D02*
X0075774Y0222442D01*
X0079710Y0224410D01*
X0079710Y0226366D02*
X0081679Y0228335D01*
X0075774Y0228335D01*
X0075774Y0230303D02*
X0075774Y0226366D01*
X0079710Y0195921D02*
X0079710Y0194937D01*
X0078726Y0192980D02*
X0075774Y0192980D01*
X0078726Y0192980D02*
X0079710Y0191996D01*
X0079710Y0190028D01*
X0078726Y0189044D01*
X0077742Y0187087D02*
X0078726Y0186103D01*
X0078726Y0184135D01*
X0079710Y0183151D01*
X0080694Y0183151D01*
X0081679Y0184135D01*
X0081679Y0186103D01*
X0080694Y0187087D01*
X0081679Y0189044D02*
X0075774Y0189044D01*
X0076758Y0187087D02*
X0075774Y0186103D01*
X0075774Y0184135D01*
X0076758Y0183151D01*
X0076758Y0187087D02*
X0077742Y0187087D01*
X0076758Y0175301D02*
X0078726Y0175301D01*
X0079710Y0174317D01*
X0079710Y0172349D01*
X0078726Y0171365D01*
X0076758Y0171365D01*
X0075774Y0172349D01*
X0075774Y0174317D01*
X0076758Y0175301D01*
X0075774Y0169408D02*
X0078726Y0169408D01*
X0079710Y0168424D01*
X0079710Y0165472D01*
X0075774Y0165472D01*
X0075774Y0163511D02*
X0075774Y0161543D01*
X0075774Y0162527D02*
X0079710Y0162527D01*
X0079710Y0161543D01*
X0079710Y0159587D02*
X0075774Y0159587D01*
X0075774Y0156634D01*
X0076758Y0155650D01*
X0079710Y0155650D01*
X0079710Y0153694D02*
X0079710Y0150741D01*
X0078726Y0149757D01*
X0076758Y0149757D01*
X0075774Y0150741D01*
X0075774Y0153694D01*
X0081679Y0153694D01*
X0079710Y0147799D02*
X0079710Y0146814D01*
X0077742Y0144846D01*
X0075774Y0144846D02*
X0079710Y0144846D01*
X0079710Y0142890D02*
X0075774Y0142890D01*
X0078726Y0142890D02*
X0078726Y0138953D01*
X0079710Y0138953D02*
X0081679Y0140921D01*
X0079710Y0142890D01*
X0079710Y0138953D02*
X0075774Y0138953D01*
X0077742Y0131104D02*
X0077742Y0127167D01*
X0076758Y0127167D02*
X0078726Y0127167D01*
X0079710Y0128151D01*
X0079710Y0130119D01*
X0078726Y0131104D01*
X0077742Y0131104D01*
X0075774Y0130119D02*
X0075774Y0128151D01*
X0076758Y0127167D01*
X0075774Y0125211D02*
X0078726Y0125211D01*
X0079710Y0124226D01*
X0079710Y0121274D01*
X0075774Y0121274D01*
X0076758Y0119318D02*
X0078726Y0119318D01*
X0079710Y0118333D01*
X0079710Y0116365D01*
X0078726Y0115381D01*
X0076758Y0115381D01*
X0075774Y0116365D01*
X0075774Y0118333D01*
X0076758Y0119318D01*
X0075774Y0113424D02*
X0078726Y0113424D01*
X0079710Y0112440D01*
X0079710Y0110472D01*
X0078726Y0109488D01*
X0078726Y0107531D02*
X0077742Y0106547D01*
X0077742Y0103595D01*
X0075774Y0103595D02*
X0081679Y0103595D01*
X0081679Y0106547D01*
X0080694Y0107531D01*
X0078726Y0107531D01*
X0075774Y0109488D02*
X0081679Y0109488D01*
X0078726Y0095745D02*
X0075774Y0095745D01*
X0075774Y0092793D01*
X0076758Y0091809D01*
X0077742Y0092793D01*
X0077742Y0095745D01*
X0078726Y0095745D02*
X0079710Y0094761D01*
X0079710Y0092793D01*
X0075774Y0089848D02*
X0075774Y0087880D01*
X0075774Y0088864D02*
X0079710Y0088864D01*
X0079710Y0087880D01*
X0079710Y0085922D02*
X0077742Y0082969D01*
X0075774Y0085922D01*
X0075774Y0082969D02*
X0081679Y0082969D01*
X0079710Y0080029D02*
X0079710Y0078060D01*
X0078726Y0077076D01*
X0076758Y0077076D01*
X0075774Y0078060D01*
X0075774Y0080029D01*
X0076758Y0081013D01*
X0078726Y0081013D01*
X0079710Y0080029D01*
X0081679Y0075120D02*
X0075774Y0075120D01*
X0081679Y0071183D01*
X0075774Y0071183D01*
X0081679Y0088864D02*
X0082663Y0088864D01*
X0082663Y0162527D02*
X0081679Y0162527D01*
D13*
X0179324Y0211855D02*
X0179324Y0213990D01*
X0180391Y0215058D01*
X0184662Y0215058D01*
X0185729Y0213990D01*
X0185729Y0211855D01*
X0184662Y0210788D01*
X0183594Y0210788D01*
X0182526Y0211855D01*
X0182526Y0215058D01*
X0179324Y0211855D02*
X0180391Y0210788D01*
X0189324Y0211855D02*
X0190391Y0210788D01*
X0191459Y0210788D01*
X0192526Y0211855D01*
X0192526Y0213990D01*
X0191459Y0215058D01*
X0190391Y0215058D01*
X0189324Y0213990D01*
X0189324Y0211855D01*
X0192526Y0211855D02*
X0193594Y0210788D01*
X0194662Y0210788D01*
X0195729Y0211855D01*
X0195729Y0213990D01*
X0194662Y0215058D01*
X0193594Y0215058D01*
X0192526Y0213990D01*
X0204324Y0210788D02*
X0205391Y0210788D01*
X0209662Y0215058D01*
X0210729Y0215058D01*
X0210729Y0210788D01*
X0214324Y0211855D02*
X0214324Y0213990D01*
X0215391Y0215058D01*
X0216459Y0215058D01*
X0217526Y0213990D01*
X0217526Y0210788D01*
X0215391Y0210788D01*
X0214324Y0211855D01*
X0217526Y0210788D02*
X0219662Y0212923D01*
X0220729Y0215058D01*
X0224324Y0213990D02*
X0224324Y0211855D01*
X0225391Y0210788D01*
X0227526Y0210788D02*
X0228594Y0212923D01*
X0228594Y0213990D01*
X0227526Y0215058D01*
X0225391Y0215058D01*
X0224324Y0213990D01*
X0227526Y0210788D02*
X0230729Y0210788D01*
X0230729Y0215058D01*
X0234324Y0213990D02*
X0240729Y0213990D01*
X0237526Y0210788D01*
X0237526Y0215058D01*
X0244324Y0213990D02*
X0244324Y0211855D01*
X0245391Y0210788D01*
X0247526Y0212923D02*
X0247526Y0213990D01*
X0246459Y0215058D01*
X0245391Y0215058D01*
X0244324Y0213990D01*
X0247526Y0213990D02*
X0248594Y0215058D01*
X0249662Y0215058D01*
X0250729Y0213990D01*
X0250729Y0211855D01*
X0249662Y0210788D01*
X0254324Y0210788D02*
X0258594Y0215058D01*
X0259662Y0215058D01*
X0260729Y0213990D01*
X0260729Y0211855D01*
X0259662Y0210788D01*
X0264324Y0210788D02*
X0264324Y0215058D01*
X0264324Y0212923D02*
X0270729Y0212923D01*
X0268594Y0210788D01*
X0274324Y0211855D02*
X0275391Y0210788D01*
X0279662Y0215058D01*
X0275391Y0215058D01*
X0274324Y0213990D01*
X0274324Y0211855D01*
X0275391Y0210788D02*
X0279662Y0210788D01*
X0280729Y0211855D01*
X0280729Y0213990D01*
X0279662Y0215058D01*
X0254324Y0215058D02*
X0254324Y0210788D01*
X0268526Y0061949D02*
X0268526Y0057679D01*
X0271729Y0060881D01*
X0265324Y0060881D01*
X0265324Y0055503D02*
X0269594Y0055503D01*
X0271729Y0053368D01*
X0269594Y0051233D01*
X0265324Y0051233D01*
X0268526Y0051233D02*
X0268526Y0055503D01*
X0275324Y0055503D02*
X0279594Y0055503D01*
X0281729Y0053368D01*
X0279594Y0051233D01*
X0275324Y0051233D01*
X0278526Y0051233D02*
X0278526Y0055503D01*
X0278526Y0057679D02*
X0279594Y0059814D01*
X0279594Y0060881D01*
X0278526Y0061949D01*
X0276391Y0061949D01*
X0275324Y0060881D01*
X0275324Y0058746D01*
X0276391Y0057679D01*
X0278526Y0057679D02*
X0281729Y0057679D01*
X0281729Y0061949D01*
X0241729Y0059814D02*
X0235324Y0059814D01*
X0235324Y0057679D02*
X0235324Y0061949D01*
X0239594Y0057679D02*
X0241729Y0059814D01*
X0239594Y0055503D02*
X0235324Y0055503D01*
X0238526Y0055503D02*
X0238526Y0051233D01*
X0239594Y0051233D02*
X0241729Y0053368D01*
X0239594Y0055503D01*
X0239594Y0051233D02*
X0235324Y0051233D01*
X0231729Y0053368D02*
X0229594Y0055503D01*
X0225324Y0055503D01*
X0226391Y0057679D02*
X0230662Y0061949D01*
X0226391Y0061949D01*
X0225324Y0060881D01*
X0225324Y0058746D01*
X0226391Y0057679D01*
X0230662Y0057679D01*
X0231729Y0058746D01*
X0231729Y0060881D01*
X0230662Y0061949D01*
X0228526Y0055503D02*
X0228526Y0051233D01*
X0229594Y0051233D02*
X0231729Y0053368D01*
X0229594Y0051233D02*
X0225324Y0051233D01*
D14*
X0283524Y0195933D02*
X0292524Y0195933D01*
X0292524Y0233933D01*
X0283524Y0233933D01*
X0283524Y0223933D02*
X0286524Y0223933D01*
X0286524Y0213933D01*
X0283524Y0213933D01*
D15*
X0092597Y0184897D02*
X0086458Y0184897D01*
X0084924Y0186431D01*
X0091062Y0186431D02*
X0091062Y0183362D01*
X0089528Y0180293D02*
X0084924Y0180293D01*
X0089528Y0180293D02*
X0091062Y0178758D01*
X0091062Y0174154D01*
X0084924Y0174154D01*
X0087993Y0171085D02*
X0087993Y0164946D01*
X0086458Y0164946D02*
X0089528Y0164946D01*
X0091062Y0166481D01*
X0091062Y0169550D01*
X0089528Y0171085D01*
X0087993Y0171085D01*
X0084924Y0169550D02*
X0084924Y0166481D01*
X0086458Y0164946D01*
X0084924Y0161877D02*
X0089528Y0161877D01*
X0091062Y0160342D01*
X0089528Y0158808D01*
X0084924Y0158808D01*
X0084924Y0155738D02*
X0091062Y0155738D01*
X0091062Y0157273D01*
X0089528Y0158808D01*
X0091062Y0152669D02*
X0084924Y0152669D01*
X0084924Y0148065D01*
X0086458Y0146531D01*
X0091062Y0146531D01*
X0091062Y0143461D02*
X0091062Y0141927D01*
X0087993Y0138857D01*
X0084924Y0138857D02*
X0091062Y0138857D01*
X0091062Y0135788D02*
X0091062Y0132719D01*
X0092597Y0134253D02*
X0086458Y0134253D01*
X0084924Y0135788D01*
X0086458Y0129650D02*
X0087993Y0128115D01*
X0087993Y0125046D01*
X0089528Y0123511D01*
X0091062Y0125046D01*
X0091062Y0129650D01*
X0086458Y0129650D02*
X0084924Y0128115D01*
X0084924Y0123511D01*
X0084924Y0120442D02*
X0089528Y0120442D01*
X0091062Y0118907D01*
X0091062Y0114303D01*
X0084924Y0114303D01*
X0084924Y0111234D02*
X0084924Y0108165D01*
X0084924Y0109699D02*
X0094131Y0109699D01*
X0094131Y0108165D02*
X0094131Y0111234D01*
X0091062Y0095887D02*
X0084924Y0089749D01*
X0091062Y0089749D02*
X0084924Y0095887D01*
X0084924Y0086680D02*
X0084924Y0082076D01*
X0086458Y0080541D01*
X0087993Y0082076D01*
X0087993Y0086680D01*
X0089528Y0086680D02*
X0084924Y0086680D01*
X0089528Y0086680D02*
X0091062Y0085145D01*
X0091062Y0082076D01*
X0089528Y0077472D02*
X0087993Y0075937D01*
X0087993Y0071333D01*
X0084924Y0071333D02*
X0094131Y0071333D01*
X0094131Y0075937D01*
X0092597Y0077472D01*
X0089528Y0077472D01*
X0089528Y0189501D02*
X0087993Y0191035D01*
X0087993Y0194105D01*
X0086458Y0195639D01*
X0084924Y0194105D01*
X0084924Y0189501D01*
X0089528Y0189501D02*
X0091062Y0191035D01*
X0091062Y0195639D01*
D16*
X0070124Y0054383D03*
D17*
X0070224Y0054383D03*
X0082124Y0055183D03*
X0083624Y0056483D03*
X0083724Y0056483D03*
X0083824Y0056483D03*
D18*
X0070324Y0054383D03*
D19*
X0070424Y0054383D03*
D20*
X0070524Y0054383D03*
X0075424Y0047283D03*
X0085424Y0063683D03*
X0085924Y0063583D03*
X0086024Y0063583D03*
X0086324Y0063483D03*
X0086424Y0063483D03*
X0086624Y0063383D03*
X0086724Y0063383D03*
X0086924Y0063283D03*
X0087224Y0063183D03*
D21*
X0088824Y0062233D03*
X0088924Y0062133D03*
X0090624Y0061033D03*
X0092024Y0059833D03*
X0092124Y0059733D03*
X0083124Y0063633D03*
X0083024Y0063633D03*
X0082924Y0063633D03*
X0070624Y0054433D03*
D22*
X0070724Y0054383D03*
X0076624Y0047183D03*
X0076724Y0047183D03*
X0089624Y0061383D03*
X0090124Y0061083D03*
X0081624Y0063183D03*
D23*
X0080924Y0062783D03*
X0070824Y0054383D03*
X0077824Y0046883D03*
X0077924Y0046883D03*
D24*
X0079124Y0046633D03*
X0079224Y0046633D03*
X0079324Y0046633D03*
X0070924Y0054433D03*
X0080524Y0062433D03*
X0092424Y0050233D03*
X0092324Y0050133D03*
X0092224Y0050033D03*
D25*
X0090924Y0049083D03*
X0090824Y0048983D03*
X0090724Y0048983D03*
X0090624Y0048883D03*
X0090324Y0048683D03*
X0083124Y0046283D03*
X0083024Y0046283D03*
X0082924Y0046283D03*
X0082624Y0046383D03*
X0082524Y0046383D03*
X0082424Y0046383D03*
X0082324Y0046383D03*
X0082224Y0046383D03*
X0082124Y0046383D03*
X0082024Y0046383D03*
X0081924Y0046383D03*
X0081824Y0046383D03*
X0081724Y0046383D03*
X0081624Y0046383D03*
X0081524Y0046383D03*
X0081424Y0046383D03*
X0071024Y0054383D03*
X0074724Y0059483D03*
D26*
X0080024Y0061833D03*
X0071124Y0054433D03*
X0088024Y0047633D03*
D27*
X0087724Y0047783D03*
X0087524Y0047683D03*
X0087424Y0047583D03*
X0087324Y0047583D03*
X0087124Y0047483D03*
X0071224Y0054383D03*
D28*
X0071324Y0054383D03*
X0075424Y0059283D03*
D29*
X0071424Y0054383D03*
D30*
X0071524Y0054383D03*
X0075824Y0059183D03*
D31*
X0076224Y0059283D03*
X0076324Y0059283D03*
X0071624Y0054383D03*
D32*
X0071724Y0054383D03*
X0076924Y0059483D03*
X0077024Y0059483D03*
D33*
X0077524Y0059633D03*
X0077624Y0059633D03*
X0071824Y0054433D03*
D34*
X0071924Y0054383D03*
X0078224Y0059783D03*
X0078324Y0059783D03*
X0078424Y0059783D03*
X0094024Y0054383D03*
D35*
X0079624Y0059983D03*
X0079524Y0059983D03*
X0079424Y0059983D03*
X0079324Y0059983D03*
X0072024Y0054383D03*
D36*
X0072124Y0054383D03*
X0093824Y0054383D03*
D37*
X0072224Y0054383D03*
D38*
X0072324Y0054383D03*
X0093624Y0054383D03*
D39*
X0072424Y0054383D03*
D40*
X0072524Y0054383D03*
X0093424Y0054383D03*
D41*
X0072624Y0054433D03*
D42*
X0072724Y0054383D03*
D43*
X0072824Y0054383D03*
X0093124Y0054383D03*
D44*
X0072924Y0054433D03*
D45*
X0073024Y0054383D03*
D46*
X0073124Y0054383D03*
X0085724Y0050083D03*
D47*
X0085124Y0050083D03*
X0085024Y0050083D03*
X0084924Y0050083D03*
X0084824Y0050083D03*
X0084724Y0050083D03*
X0084624Y0050083D03*
X0092724Y0054383D03*
X0073224Y0054383D03*
D48*
X0073324Y0054383D03*
X0092624Y0054383D03*
D49*
X0073424Y0054383D03*
D50*
X0073524Y0054433D03*
D51*
X0073624Y0054433D03*
D52*
X0073724Y0054433D03*
D53*
X0073824Y0054433D03*
D54*
X0073924Y0054433D03*
D55*
X0074024Y0054433D03*
D56*
X0074124Y0054433D03*
D57*
X0074224Y0054433D03*
D58*
X0074324Y0054383D03*
D59*
X0074424Y0047233D03*
D60*
X0079824Y0046533D03*
X0079924Y0046533D03*
X0080024Y0046533D03*
X0080124Y0046533D03*
X0091824Y0049733D03*
X0091924Y0049833D03*
X0080424Y0062333D03*
X0074424Y0059333D03*
D61*
X0074524Y0047183D03*
D62*
X0080224Y0046483D03*
X0080324Y0046483D03*
X0080424Y0046483D03*
X0080524Y0046483D03*
X0080624Y0046483D03*
X0083324Y0046283D03*
X0091524Y0049483D03*
X0091624Y0049583D03*
X0091724Y0049683D03*
X0094924Y0054383D03*
X0074524Y0059383D03*
D63*
X0074624Y0047133D03*
D64*
X0080724Y0046433D03*
X0080824Y0046433D03*
X0080924Y0046433D03*
X0081024Y0046433D03*
X0081124Y0046433D03*
X0081224Y0046433D03*
X0081324Y0046433D03*
X0083224Y0046233D03*
X0091024Y0049133D03*
X0091124Y0049233D03*
X0091224Y0049333D03*
X0091324Y0049333D03*
X0091424Y0049433D03*
X0080324Y0062233D03*
X0074624Y0059433D03*
D65*
X0074724Y0047083D03*
D66*
X0074824Y0047033D03*
X0074924Y0047033D03*
D67*
X0082724Y0046333D03*
X0082824Y0046333D03*
X0088424Y0047633D03*
X0088524Y0047633D03*
X0088624Y0047733D03*
X0088724Y0047733D03*
X0088824Y0047833D03*
X0088924Y0047833D03*
X0089024Y0047933D03*
X0089224Y0048033D03*
X0089424Y0048133D03*
X0089624Y0048233D03*
X0089724Y0048333D03*
X0089924Y0048433D03*
X0090024Y0048533D03*
X0090124Y0048533D03*
X0090224Y0048633D03*
X0090424Y0048733D03*
X0090524Y0048833D03*
X0080224Y0062133D03*
X0074824Y0059533D03*
D68*
X0074924Y0059583D03*
X0075024Y0059583D03*
X0088324Y0047583D03*
X0089124Y0047983D03*
X0089324Y0048083D03*
X0089524Y0048183D03*
X0089824Y0048383D03*
D69*
X0075024Y0046983D03*
D70*
X0075124Y0046933D03*
D71*
X0088224Y0047633D03*
X0075124Y0059633D03*
X0080124Y0062033D03*
D72*
X0095524Y0054383D03*
X0075224Y0046883D03*
D73*
X0088124Y0047583D03*
X0094824Y0054383D03*
X0075224Y0059683D03*
D74*
X0075324Y0046933D03*
D75*
X0075324Y0059683D03*
D76*
X0083824Y0063733D03*
X0083924Y0063733D03*
X0084024Y0063733D03*
X0084124Y0063733D03*
X0084224Y0063733D03*
X0084324Y0063733D03*
X0087924Y0062833D03*
X0088124Y0062733D03*
X0091024Y0060933D03*
X0091124Y0060933D03*
X0091224Y0060833D03*
X0091524Y0060533D03*
X0075524Y0047333D03*
D77*
X0075524Y0059233D03*
D78*
X0083224Y0063683D03*
X0083324Y0063683D03*
X0088624Y0062383D03*
X0088724Y0062283D03*
X0090724Y0061083D03*
X0091924Y0059983D03*
X0075724Y0047383D03*
X0075624Y0047383D03*
D79*
X0075624Y0059183D03*
X0075724Y0059183D03*
D80*
X0082724Y0063583D03*
X0082824Y0063583D03*
X0089024Y0062083D03*
X0089124Y0061983D03*
X0090524Y0061083D03*
X0092224Y0059583D03*
X0075824Y0047383D03*
D81*
X0075924Y0047333D03*
X0076024Y0047333D03*
X0089224Y0061833D03*
X0092324Y0059433D03*
X0092424Y0059333D03*
X0082624Y0063533D03*
X0082524Y0063533D03*
D82*
X0076024Y0059233D03*
X0075924Y0059233D03*
D83*
X0082024Y0063333D03*
X0082124Y0063333D03*
X0082224Y0063433D03*
X0089424Y0061633D03*
X0092524Y0059133D03*
X0076124Y0047333D03*
D84*
X0076124Y0059283D03*
X0094324Y0054383D03*
D85*
X0095224Y0054383D03*
X0090324Y0061083D03*
X0090224Y0061083D03*
X0081924Y0063283D03*
X0076324Y0047283D03*
X0076224Y0047283D03*
D86*
X0076424Y0047233D03*
X0076524Y0047233D03*
X0089524Y0061533D03*
X0081824Y0063233D03*
X0081724Y0063233D03*
D87*
X0076424Y0059333D03*
D88*
X0076524Y0059383D03*
X0076624Y0059383D03*
X0094224Y0054383D03*
D89*
X0076824Y0059433D03*
X0076724Y0059433D03*
D90*
X0081524Y0063133D03*
X0090024Y0061133D03*
X0084424Y0045633D03*
X0084324Y0045633D03*
X0084224Y0045633D03*
X0084124Y0045633D03*
X0084024Y0045633D03*
X0083924Y0045633D03*
X0083824Y0045633D03*
X0083724Y0045633D03*
X0083624Y0045633D03*
X0076924Y0047133D03*
X0076824Y0047133D03*
D91*
X0077024Y0047083D03*
X0089924Y0061083D03*
X0089724Y0061283D03*
X0081424Y0063083D03*
D92*
X0081324Y0063033D03*
X0089824Y0061133D03*
X0077224Y0047033D03*
X0077124Y0047033D03*
D93*
X0077124Y0059533D03*
X0077224Y0059533D03*
D94*
X0081124Y0062883D03*
X0081224Y0062983D03*
X0095124Y0054383D03*
X0077424Y0046983D03*
X0077324Y0046983D03*
D95*
X0077324Y0059583D03*
X0077424Y0059583D03*
X0094124Y0054383D03*
D96*
X0081024Y0062833D03*
X0077724Y0046933D03*
X0077624Y0046933D03*
X0077524Y0046933D03*
D97*
X0077724Y0059683D03*
X0077824Y0059683D03*
D98*
X0077924Y0059733D03*
X0078024Y0059733D03*
X0078124Y0059733D03*
D99*
X0078124Y0046833D03*
X0078024Y0046833D03*
D100*
X0078224Y0046783D03*
X0078324Y0046783D03*
X0078424Y0046783D03*
X0080824Y0062683D03*
D101*
X0080724Y0062633D03*
X0078724Y0046733D03*
X0078624Y0046733D03*
X0078524Y0046733D03*
X0083524Y0046033D03*
D102*
X0078624Y0059833D03*
X0078524Y0059833D03*
D103*
X0078724Y0059883D03*
X0078824Y0059883D03*
X0078924Y0059883D03*
X0093924Y0054383D03*
D104*
X0095024Y0054383D03*
X0080624Y0062583D03*
X0079024Y0046683D03*
X0078924Y0046683D03*
X0078824Y0046683D03*
D105*
X0079024Y0059933D03*
X0079124Y0059933D03*
X0079224Y0059933D03*
D106*
X0092024Y0049883D03*
X0092124Y0049983D03*
X0092524Y0050383D03*
X0083424Y0046183D03*
X0079724Y0046583D03*
X0079624Y0046583D03*
X0079524Y0046583D03*
X0079424Y0046583D03*
D107*
X0079724Y0060033D03*
D108*
X0087824Y0056333D03*
X0079824Y0053733D03*
D109*
X0079824Y0061483D03*
X0094624Y0054383D03*
D110*
X0088024Y0056183D03*
X0079924Y0053483D03*
D111*
X0087824Y0047683D03*
X0086724Y0047283D03*
X0094724Y0054383D03*
X0079924Y0061683D03*
D112*
X0080024Y0053333D03*
X0086924Y0054333D03*
D113*
X0081624Y0055133D03*
D114*
X0081724Y0055183D03*
X0087424Y0056483D03*
D115*
X0081824Y0055183D03*
D116*
X0081924Y0055183D03*
D117*
X0082024Y0055183D03*
D118*
X0082224Y0055133D03*
X0086724Y0056033D03*
D119*
X0086524Y0056033D03*
X0082324Y0055233D03*
D120*
X0089324Y0061783D03*
X0090424Y0061083D03*
X0082424Y0063483D03*
X0082324Y0063483D03*
D121*
X0082424Y0055283D03*
D122*
X0082524Y0055333D03*
X0083524Y0056033D03*
X0086324Y0056033D03*
X0086424Y0056033D03*
D123*
X0082724Y0055483D03*
X0082624Y0055383D03*
X0095624Y0054383D03*
D124*
X0086224Y0056033D03*
X0086124Y0056033D03*
X0082924Y0055533D03*
X0082824Y0055533D03*
D125*
X0083024Y0055583D03*
X0083224Y0055683D03*
X0083324Y0055783D03*
X0083424Y0055883D03*
X0086024Y0055983D03*
D126*
X0083124Y0055633D03*
D127*
X0090824Y0061033D03*
X0091824Y0060133D03*
X0088524Y0062433D03*
X0088424Y0062533D03*
X0083624Y0063733D03*
X0083524Y0063733D03*
X0083424Y0063733D03*
X0095324Y0054433D03*
D128*
X0091724Y0060283D03*
X0091624Y0060383D03*
X0090924Y0060983D03*
X0088324Y0062583D03*
X0088224Y0062683D03*
X0083724Y0063683D03*
D129*
X0083924Y0056533D03*
X0084024Y0056533D03*
X0084124Y0056533D03*
X0084224Y0056533D03*
D130*
X0084324Y0056583D03*
X0084424Y0056583D03*
D131*
X0091324Y0060783D03*
X0091424Y0060683D03*
X0088024Y0062783D03*
X0087824Y0062883D03*
X0087724Y0062983D03*
X0087624Y0062983D03*
X0087424Y0063083D03*
X0084624Y0063783D03*
X0084524Y0063783D03*
X0084424Y0063783D03*
D132*
X0084524Y0050033D03*
D133*
X0087524Y0063033D03*
X0087324Y0063133D03*
X0087124Y0063233D03*
X0087024Y0063233D03*
X0086824Y0063333D03*
X0086524Y0063433D03*
X0086224Y0063533D03*
X0086124Y0063533D03*
X0085824Y0063633D03*
X0085724Y0063633D03*
X0085624Y0063633D03*
X0085524Y0063633D03*
X0085324Y0063733D03*
X0085224Y0063733D03*
X0085124Y0063733D03*
X0085024Y0063733D03*
X0084924Y0063733D03*
X0084824Y0063733D03*
X0084724Y0063733D03*
D134*
X0085224Y0050133D03*
X0085324Y0050133D03*
X0085424Y0050133D03*
X0085524Y0050133D03*
X0085624Y0050133D03*
D135*
X0085824Y0050133D03*
X0085924Y0050133D03*
X0092824Y0054433D03*
D136*
X0094424Y0054433D03*
X0086024Y0047733D03*
D137*
X0086124Y0047633D03*
D138*
X0086224Y0047583D03*
X0094524Y0054383D03*
D139*
X0086324Y0047533D03*
D140*
X0086424Y0047433D03*
D141*
X0086524Y0047333D03*
X0087624Y0047733D03*
D142*
X0087224Y0047533D03*
X0087024Y0047433D03*
X0086924Y0047433D03*
X0086824Y0047333D03*
X0086624Y0047333D03*
D143*
X0086624Y0056083D03*
D144*
X0086824Y0054433D03*
D145*
X0086824Y0056433D03*
D146*
X0086924Y0056533D03*
D147*
X0087024Y0056533D03*
D148*
X0087124Y0056533D03*
D149*
X0087224Y0056483D03*
D150*
X0087324Y0056483D03*
D151*
X0087524Y0056433D03*
D152*
X0087624Y0056433D03*
D153*
X0087724Y0056333D03*
D154*
X0087924Y0047633D03*
D155*
X0087924Y0056283D03*
D156*
X0088124Y0056083D03*
X0095824Y0054383D03*
D157*
X0092924Y0054383D03*
D158*
X0093024Y0054383D03*
D159*
X0093224Y0054433D03*
D160*
X0093324Y0054383D03*
D161*
X0093524Y0054433D03*
D162*
X0093724Y0054433D03*
D163*
X0095424Y0054383D03*
D164*
X0095724Y0054433D03*
M02*
