G75*
%MOIN*%
%OFA0B0*%
%FSLAX25Y25*%
%IPPOS*%
%LPD*%
%AMOC8*
5,1,8,0,0,1.08239X$1,22.5*
%
%ADD10C,0.00500*%
%ADD11C,0.00400*%
%ADD12C,0.00600*%
%ADD13C,0.00800*%
%ADD14C,0.00300*%
%ADD15C,0.02400*%
%ADD16C,0.01600*%
%ADD17C,0.01200*%
%ADD18R,0.00100X0.01600*%
%ADD19R,0.00100X0.03600*%
%ADD20R,0.00100X0.04800*%
%ADD21R,0.00100X0.05800*%
%ADD22R,0.00100X0.06600*%
%ADD23R,0.00100X0.07300*%
%ADD24R,0.00100X0.08000*%
%ADD25R,0.00100X0.08600*%
%ADD26R,0.00100X0.09100*%
%ADD27R,0.00100X0.09600*%
%ADD28R,0.00100X0.10100*%
%ADD29R,0.00100X0.10600*%
%ADD30R,0.00100X0.11000*%
%ADD31R,0.00100X0.11400*%
%ADD32R,0.00100X0.11800*%
%ADD33R,0.00100X0.12200*%
%ADD34R,0.00100X0.12600*%
%ADD35R,0.00100X0.12900*%
%ADD36R,0.00100X0.13200*%
%ADD37R,0.00100X0.13600*%
%ADD38R,0.00100X0.13800*%
%ADD39R,0.00100X0.14200*%
%ADD40R,0.00100X0.14400*%
%ADD41R,0.00100X0.14800*%
%ADD42R,0.00100X0.15000*%
%ADD43R,0.00100X0.15300*%
%ADD44R,0.00100X0.15600*%
%ADD45R,0.00100X0.15800*%
%ADD46R,0.00100X0.16100*%
%ADD47R,0.00100X0.16400*%
%ADD48R,0.00100X0.16600*%
%ADD49R,0.00100X0.16800*%
%ADD50R,0.00100X0.17000*%
%ADD51R,0.00100X0.17200*%
%ADD52R,0.00100X0.17500*%
%ADD53R,0.00100X0.17700*%
%ADD54R,0.00100X0.17900*%
%ADD55R,0.00100X0.18100*%
%ADD56R,0.00100X0.18300*%
%ADD57R,0.00100X0.18500*%
%ADD58R,0.00100X0.18700*%
%ADD59R,0.00100X0.18900*%
%ADD60R,0.00100X0.19000*%
%ADD61R,0.00100X0.04900*%
%ADD62R,0.00100X0.09300*%
%ADD63R,0.00100X0.05000*%
%ADD64R,0.00100X0.09400*%
%ADD65R,0.00100X0.05100*%
%ADD66R,0.00100X0.09500*%
%ADD67R,0.00100X0.05200*%
%ADD68R,0.00100X0.05300*%
%ADD69R,0.00100X0.09700*%
%ADD70R,0.00100X0.09800*%
%ADD71R,0.00100X0.05400*%
%ADD72R,0.00100X0.05500*%
%ADD73R,0.00100X0.09900*%
%ADD74R,0.00100X0.05600*%
%ADD75R,0.00100X0.10000*%
%ADD76R,0.00100X0.05700*%
%ADD77R,0.00100X0.10200*%
%ADD78R,0.00100X0.06900*%
%ADD79R,0.00100X0.11300*%
%ADD80R,0.00100X0.07200*%
%ADD81R,0.00100X0.11600*%
%ADD82R,0.00100X0.07400*%
%ADD83R,0.00100X0.07500*%
%ADD84R,0.00100X0.11900*%
%ADD85R,0.00100X0.07700*%
%ADD86R,0.00100X0.12000*%
%ADD87R,0.00100X0.07800*%
%ADD88R,0.00100X0.07900*%
%ADD89R,0.00100X0.12300*%
%ADD90R,0.00100X0.12400*%
%ADD91R,0.00100X0.12500*%
%ADD92R,0.00100X0.08100*%
%ADD93R,0.00100X0.08200*%
%ADD94R,0.00100X0.08300*%
%ADD95R,0.00100X0.12700*%
%ADD96R,0.00100X0.08400*%
%ADD97R,0.00100X0.12800*%
%ADD98R,0.00100X0.08500*%
%ADD99R,0.00100X0.13000*%
%ADD100R,0.00100X0.13100*%
%ADD101R,0.00100X0.08700*%
%ADD102R,0.00100X0.08800*%
%ADD103R,0.00100X0.08900*%
%ADD104R,0.00100X0.13300*%
%ADD105R,0.00100X0.13400*%
%ADD106R,0.00100X0.09000*%
%ADD107R,0.00100X0.13500*%
%ADD108R,0.00100X0.09200*%
%ADD109R,0.00100X0.13700*%
%ADD110R,0.00100X0.01100*%
%ADD111R,0.00100X0.10800*%
%ADD112R,0.00100X0.00600*%
%ADD113R,0.00100X0.10400*%
%ADD114R,0.00100X0.00300*%
%ADD115R,0.00100X0.00700*%
%ADD116R,0.00100X0.01800*%
%ADD117R,0.00100X0.02400*%
%ADD118R,0.00100X0.02800*%
%ADD119R,0.00100X0.03200*%
%ADD120R,0.00100X0.03900*%
%ADD121R,0.00100X0.04100*%
%ADD122R,0.00100X0.07600*%
%ADD123R,0.00100X0.04200*%
%ADD124R,0.00100X0.04300*%
%ADD125R,0.00100X0.04400*%
%ADD126R,0.00100X0.04500*%
%ADD127R,0.00100X0.04600*%
%ADD128R,0.00100X0.04700*%
%ADD129R,0.00100X0.07100*%
%ADD130R,0.00100X0.07000*%
%ADD131R,0.00100X0.03700*%
%ADD132R,0.00100X0.03800*%
%ADD133R,0.00100X0.06800*%
%ADD134R,0.00100X0.16900*%
%ADD135R,0.00100X0.06700*%
%ADD136R,0.00100X0.16700*%
%ADD137R,0.00100X0.16500*%
%ADD138R,0.00100X0.11700*%
%ADD139R,0.00100X0.11500*%
%ADD140R,0.00100X0.11200*%
%ADD141R,0.00100X0.11100*%
%ADD142R,0.00100X0.10900*%
%ADD143R,0.00100X0.10700*%
%ADD144R,0.00100X0.10500*%
%ADD145R,0.00100X0.04000*%
%ADD146R,0.00100X0.00500*%
%ADD147R,0.00100X0.02900*%
%ADD148R,0.00100X0.02700*%
%ADD149R,0.00100X0.02500*%
%ADD150R,0.00100X0.02300*%
%ADD151R,0.00100X0.02200*%
%ADD152R,0.00100X0.02000*%
%ADD153R,0.00100X0.01700*%
%ADD154R,0.00100X0.01500*%
%ADD155R,0.00100X0.01300*%
%ADD156R,0.00100X0.10300*%
%ADD157R,0.00100X0.00800*%
%ADD158R,0.00100X0.00200*%
%ADD159R,0.00100X0.16200*%
%ADD160R,0.00100X0.16000*%
%ADD161R,0.00100X0.15500*%
%ADD162R,0.00100X0.15200*%
%ADD163R,0.00100X0.14700*%
%ADD164R,0.00100X0.14100*%
%ADD165R,0.00100X0.06400*%
%ADD166R,0.00100X0.03100*%
%ADD167C,0.02200*%
D10*
X0080369Y0066183D02*
X0086274Y0070120D01*
X0080369Y0070120D01*
X0082337Y0073060D02*
X0083321Y0072076D01*
X0085289Y0072076D01*
X0086274Y0073060D01*
X0086274Y0075029D01*
X0085289Y0076013D01*
X0083321Y0076013D01*
X0082337Y0075029D01*
X0082337Y0073060D01*
X0084305Y0077969D02*
X0082337Y0080922D01*
X0082337Y0082880D02*
X0082337Y0083864D01*
X0086274Y0083864D01*
X0086274Y0082880D02*
X0086274Y0084848D01*
X0085289Y0086809D02*
X0084305Y0087793D01*
X0084305Y0090745D01*
X0083321Y0090745D02*
X0086274Y0090745D01*
X0086274Y0087793D01*
X0085289Y0086809D01*
X0082337Y0087793D02*
X0082337Y0089761D01*
X0083321Y0090745D01*
X0080369Y0083864D02*
X0079384Y0083864D01*
X0080369Y0077969D02*
X0086274Y0077969D01*
X0084305Y0077969D02*
X0086274Y0080922D01*
X0086274Y0066183D02*
X0080369Y0066183D01*
X0080369Y0098595D02*
X0080369Y0101547D01*
X0081353Y0102531D01*
X0083321Y0102531D01*
X0084305Y0101547D01*
X0084305Y0098595D01*
X0086274Y0098595D02*
X0080369Y0098595D01*
X0080369Y0104488D02*
X0086274Y0104488D01*
X0083321Y0104488D02*
X0082337Y0105472D01*
X0082337Y0107440D01*
X0083321Y0108424D01*
X0086274Y0108424D01*
X0085289Y0110381D02*
X0083321Y0110381D01*
X0082337Y0111365D01*
X0082337Y0113333D01*
X0083321Y0114318D01*
X0085289Y0114318D01*
X0086274Y0113333D01*
X0086274Y0111365D01*
X0085289Y0110381D01*
X0086274Y0116274D02*
X0082337Y0116274D01*
X0082337Y0119226D01*
X0083321Y0120211D01*
X0086274Y0120211D01*
X0085289Y0122167D02*
X0083321Y0122167D01*
X0082337Y0123151D01*
X0082337Y0125119D01*
X0083321Y0126104D01*
X0084305Y0126104D01*
X0084305Y0122167D01*
X0085289Y0122167D02*
X0086274Y0123151D01*
X0086274Y0125119D01*
X0086274Y0133953D02*
X0082337Y0133953D01*
X0080369Y0135921D01*
X0082337Y0137890D01*
X0086274Y0137890D01*
X0086274Y0139846D02*
X0082337Y0139846D01*
X0084305Y0139846D02*
X0082337Y0141814D01*
X0082337Y0142799D01*
X0083321Y0144757D02*
X0082337Y0145741D01*
X0082337Y0148694D01*
X0082337Y0150650D02*
X0085289Y0150650D01*
X0086274Y0151634D01*
X0086274Y0154587D01*
X0082337Y0154587D01*
X0082337Y0156543D02*
X0082337Y0157527D01*
X0086274Y0157527D01*
X0086274Y0156543D02*
X0086274Y0158511D01*
X0086274Y0160472D02*
X0082337Y0160472D01*
X0082337Y0163424D01*
X0083321Y0164408D01*
X0086274Y0164408D01*
X0085289Y0166365D02*
X0086274Y0167349D01*
X0086274Y0169317D01*
X0085289Y0170301D01*
X0083321Y0170301D01*
X0082337Y0169317D01*
X0082337Y0167349D01*
X0083321Y0166365D01*
X0085289Y0166365D01*
X0080369Y0157527D02*
X0079384Y0157527D01*
X0080369Y0148694D02*
X0086274Y0148694D01*
X0086274Y0145741D01*
X0085289Y0144757D01*
X0083321Y0144757D01*
X0083321Y0137890D02*
X0083321Y0133953D01*
X0082337Y0178151D02*
X0081353Y0178151D01*
X0080369Y0179135D01*
X0080369Y0181103D01*
X0081353Y0182087D01*
X0080369Y0184044D02*
X0086274Y0184044D01*
X0085289Y0182087D02*
X0086274Y0181103D01*
X0086274Y0179135D01*
X0085289Y0178151D01*
X0083321Y0179135D02*
X0083321Y0181103D01*
X0084305Y0182087D01*
X0085289Y0182087D01*
X0083321Y0184044D02*
X0082337Y0185028D01*
X0082337Y0186996D01*
X0083321Y0187980D01*
X0086274Y0187980D01*
X0086274Y0189937D02*
X0086274Y0191905D01*
X0086274Y0190921D02*
X0082337Y0190921D01*
X0082337Y0189937D01*
X0080369Y0190921D02*
X0079384Y0190921D01*
X0082337Y0194850D02*
X0083321Y0193866D01*
X0085289Y0193866D01*
X0086274Y0194850D01*
X0086274Y0196818D01*
X0084305Y0197802D02*
X0084305Y0193866D01*
X0082337Y0194850D02*
X0082337Y0196818D01*
X0083321Y0197802D01*
X0084305Y0197802D01*
X0086274Y0199759D02*
X0086274Y0201727D01*
X0086274Y0200743D02*
X0080369Y0200743D01*
X0080369Y0199759D01*
X0083321Y0203687D02*
X0082337Y0204671D01*
X0082337Y0207624D01*
X0080369Y0207624D02*
X0086274Y0207624D01*
X0086274Y0204671D01*
X0085289Y0203687D01*
X0083321Y0203687D01*
X0082337Y0215473D02*
X0086274Y0217442D01*
X0082337Y0219410D01*
X0082337Y0221366D02*
X0080369Y0223335D01*
X0086274Y0223335D01*
X0086274Y0225303D02*
X0086274Y0221366D01*
X0139468Y0214158D02*
X0139468Y0212123D01*
X0140486Y0211106D01*
X0142521Y0213141D02*
X0142521Y0214158D01*
X0143539Y0215176D01*
X0144556Y0215176D01*
X0145574Y0214158D01*
X0145574Y0212123D01*
X0144556Y0211106D01*
X0145574Y0209099D02*
X0145574Y0205029D01*
X0145574Y0207064D02*
X0139468Y0207064D01*
X0141503Y0205029D01*
X0149468Y0207064D02*
X0155574Y0207064D01*
X0155574Y0205029D02*
X0155574Y0209099D01*
X0155574Y0211106D02*
X0151503Y0215176D01*
X0150486Y0215176D01*
X0149468Y0214158D01*
X0149468Y0212123D01*
X0150486Y0211106D01*
X0149468Y0207064D02*
X0151503Y0205029D01*
X0155574Y0211106D02*
X0155574Y0215176D01*
X0159468Y0213141D02*
X0165574Y0213141D01*
X0165574Y0211106D02*
X0165574Y0215176D01*
X0169468Y0214158D02*
X0169468Y0212123D01*
X0170486Y0211106D01*
X0174556Y0211106D01*
X0170486Y0215176D01*
X0174556Y0215176D01*
X0175574Y0214158D01*
X0175574Y0212123D01*
X0174556Y0211106D01*
X0175574Y0209099D02*
X0175574Y0205029D01*
X0175574Y0207064D02*
X0169468Y0207064D01*
X0171503Y0205029D01*
X0165574Y0205029D02*
X0165574Y0209099D01*
X0165574Y0207064D02*
X0159468Y0207064D01*
X0161503Y0205029D01*
X0161503Y0211106D02*
X0159468Y0213141D01*
X0169468Y0214158D02*
X0170486Y0215176D01*
X0142521Y0214158D02*
X0141503Y0215176D01*
X0140486Y0215176D01*
X0139468Y0214158D01*
X0083321Y0179135D02*
X0082337Y0178151D01*
X0264728Y0184681D02*
X0264728Y0163028D01*
X0267681Y0163028D01*
X0267681Y0184681D01*
X0290319Y0184681D01*
X0290319Y0163028D01*
X0267681Y0163028D01*
X0267681Y0184681D02*
X0264728Y0184681D01*
D11*
X0233639Y0141538D02*
X0231036Y0141538D01*
X0231036Y0136333D01*
X0233639Y0136333D01*
X0234506Y0137200D01*
X0234506Y0140670D01*
X0233639Y0141538D01*
X0229350Y0141538D02*
X0229350Y0136333D01*
X0225880Y0141538D01*
X0225880Y0136333D01*
X0224193Y0137200D02*
X0224193Y0138935D01*
X0222458Y0138935D01*
X0220724Y0137200D02*
X0221591Y0136333D01*
X0223326Y0136333D01*
X0224193Y0137200D01*
X0220724Y0137200D02*
X0220724Y0140670D01*
X0221591Y0141538D01*
X0223326Y0141538D01*
X0224193Y0140670D01*
X0225880Y0131538D02*
X0222411Y0131538D01*
X0222411Y0128935D01*
X0224146Y0129803D01*
X0225013Y0129803D01*
X0225880Y0128935D01*
X0225880Y0127200D01*
X0225013Y0126333D01*
X0223278Y0126333D01*
X0222411Y0127200D01*
X0227567Y0128068D02*
X0227567Y0131538D01*
X0231037Y0131538D02*
X0231037Y0128068D01*
X0229302Y0126333D01*
X0227567Y0128068D01*
X0164397Y0113737D02*
X0161328Y0109133D01*
X0164397Y0109133D02*
X0161328Y0113737D01*
X0159793Y0113737D02*
X0156724Y0113737D01*
X0158258Y0113737D02*
X0158258Y0109133D01*
X0149397Y0109133D02*
X0146328Y0113737D01*
X0144793Y0112970D02*
X0144793Y0111435D01*
X0144026Y0110668D01*
X0141724Y0110668D01*
X0143258Y0110668D02*
X0144793Y0109133D01*
X0146328Y0109133D02*
X0149397Y0113737D01*
X0144793Y0112970D02*
X0144026Y0113737D01*
X0141724Y0113737D01*
X0141724Y0109133D01*
X0133189Y0102935D02*
X0133189Y0101400D01*
X0132422Y0100633D01*
X0130887Y0100633D01*
X0130120Y0101400D01*
X0130120Y0102935D01*
X0130887Y0103702D01*
X0132422Y0103702D01*
X0133189Y0102935D01*
X0128585Y0103702D02*
X0126283Y0103702D01*
X0125516Y0102935D01*
X0125516Y0101400D01*
X0126283Y0100633D01*
X0128585Y0100633D01*
X0128585Y0105237D01*
X0123981Y0103702D02*
X0123214Y0103702D01*
X0121679Y0102168D01*
X0121679Y0103702D02*
X0121679Y0100633D01*
X0120144Y0100633D02*
X0120144Y0102935D01*
X0119377Y0103702D01*
X0117842Y0103702D01*
X0117842Y0102168D02*
X0120144Y0102168D01*
X0120144Y0100633D02*
X0117842Y0100633D01*
X0117075Y0101400D01*
X0117842Y0102168D01*
X0115541Y0102935D02*
X0115541Y0100633D01*
X0115541Y0102935D02*
X0114773Y0103702D01*
X0112471Y0103702D01*
X0112471Y0100633D01*
X0110937Y0101400D02*
X0110937Y0102935D01*
X0110169Y0103702D01*
X0108635Y0103702D01*
X0107867Y0102935D01*
X0107867Y0101400D01*
X0108635Y0100633D01*
X0110169Y0100633D01*
X0110937Y0101400D01*
X0106333Y0102168D02*
X0103263Y0102168D01*
X0103263Y0102935D02*
X0104031Y0103702D01*
X0105565Y0103702D01*
X0106333Y0102935D01*
X0106333Y0102168D01*
X0105565Y0100633D02*
X0104031Y0100633D01*
X0103263Y0101400D01*
X0103263Y0102935D01*
X0101729Y0100633D02*
X0098659Y0100633D01*
X0098659Y0105237D01*
X0094324Y0105988D02*
X0091054Y0105988D01*
X0091054Y0106805D01*
X0091872Y0107622D01*
X0091054Y0108440D01*
X0091872Y0109257D01*
X0094324Y0109257D01*
X0094324Y0107622D02*
X0091872Y0107622D01*
X0091872Y0110868D02*
X0091054Y0111685D01*
X0091054Y0113320D01*
X0091872Y0114137D01*
X0092689Y0114137D01*
X0092689Y0110868D01*
X0093506Y0110868D02*
X0091872Y0110868D01*
X0093506Y0110868D02*
X0094324Y0111685D01*
X0094324Y0113320D01*
X0094324Y0115748D02*
X0091054Y0115748D01*
X0091054Y0118200D01*
X0091872Y0119018D01*
X0094324Y0119018D01*
X0093506Y0121446D02*
X0090237Y0121446D01*
X0091054Y0122263D02*
X0091054Y0120628D01*
X0093506Y0121446D02*
X0094324Y0122263D01*
X0094324Y0123882D02*
X0094324Y0126334D01*
X0093506Y0127151D01*
X0092689Y0126334D01*
X0092689Y0124699D01*
X0091872Y0123882D01*
X0091054Y0124699D01*
X0091054Y0127151D01*
X0093506Y0128762D02*
X0093506Y0129579D01*
X0094324Y0129579D01*
X0094324Y0128762D01*
X0093506Y0128762D01*
X0093506Y0131202D02*
X0094324Y0132019D01*
X0094324Y0134471D01*
X0093506Y0136082D02*
X0094324Y0136899D01*
X0094324Y0138534D01*
X0093506Y0139352D01*
X0091872Y0139352D01*
X0091054Y0138534D01*
X0091054Y0136899D01*
X0091872Y0136082D01*
X0093506Y0136082D01*
X0091054Y0134471D02*
X0091054Y0132019D01*
X0091872Y0131202D01*
X0093506Y0131202D01*
X0102912Y0138900D02*
X0103679Y0138133D01*
X0105214Y0138133D01*
X0105981Y0138900D01*
X0105981Y0142737D01*
X0107516Y0141202D02*
X0109818Y0141202D01*
X0110585Y0140435D01*
X0110585Y0138133D01*
X0112120Y0138900D02*
X0112120Y0140435D01*
X0112887Y0141202D01*
X0114422Y0141202D01*
X0115189Y0140435D01*
X0115189Y0138900D01*
X0114422Y0138133D01*
X0112887Y0138133D01*
X0112120Y0138900D01*
X0107516Y0138133D02*
X0107516Y0141202D01*
X0102912Y0142737D02*
X0102912Y0138900D01*
X0094324Y0140962D02*
X0091054Y0140962D01*
X0091054Y0141780D01*
X0091872Y0142597D01*
X0091054Y0143414D01*
X0091872Y0144232D01*
X0094324Y0144232D01*
X0094324Y0145842D02*
X0089419Y0149112D01*
X0091054Y0150723D02*
X0091054Y0153175D01*
X0091872Y0153992D01*
X0093506Y0153992D01*
X0094324Y0153175D01*
X0094324Y0150723D01*
X0095958Y0150723D02*
X0091054Y0150723D01*
X0091054Y0155603D02*
X0094324Y0155603D01*
X0092689Y0155603D02*
X0091054Y0157238D01*
X0091054Y0158055D01*
X0091872Y0159670D02*
X0091054Y0160487D01*
X0091054Y0162122D01*
X0091872Y0162939D01*
X0093506Y0162939D01*
X0094324Y0162122D01*
X0094324Y0160487D01*
X0093506Y0159670D01*
X0091872Y0159670D01*
X0091872Y0164550D02*
X0091054Y0165367D01*
X0091054Y0167819D01*
X0091054Y0169430D02*
X0093506Y0169430D01*
X0094324Y0170247D01*
X0094324Y0172699D01*
X0091054Y0172699D01*
X0091872Y0174310D02*
X0091054Y0175127D01*
X0091054Y0177580D01*
X0091054Y0179190D02*
X0091054Y0180825D01*
X0090237Y0180008D02*
X0093506Y0180008D01*
X0094324Y0180825D01*
X0094324Y0182444D02*
X0094324Y0184896D01*
X0093506Y0185713D01*
X0092689Y0184896D01*
X0092689Y0183261D01*
X0091872Y0182444D01*
X0091054Y0183261D01*
X0091054Y0185713D01*
X0094324Y0187324D02*
X0089419Y0190593D01*
X0091054Y0193021D02*
X0091054Y0195474D01*
X0092689Y0194656D02*
X0092689Y0193021D01*
X0091872Y0192204D01*
X0091054Y0193021D01*
X0092689Y0194656D02*
X0093506Y0195474D01*
X0094324Y0194656D01*
X0094324Y0192204D01*
X0094324Y0197084D02*
X0089419Y0197084D01*
X0091054Y0199536D02*
X0092689Y0197084D01*
X0094324Y0199536D01*
X0093506Y0201151D02*
X0094324Y0201968D01*
X0094324Y0204420D01*
X0091054Y0204420D01*
X0091054Y0206031D02*
X0089419Y0207666D01*
X0094324Y0207666D01*
X0094324Y0206031D02*
X0094324Y0209301D01*
X0093506Y0210911D02*
X0094324Y0211729D01*
X0094324Y0213363D01*
X0093506Y0214181D01*
X0091872Y0214181D01*
X0091054Y0213363D01*
X0091054Y0212546D01*
X0091872Y0210911D01*
X0089419Y0210911D01*
X0089419Y0214181D01*
X0090237Y0215792D02*
X0089419Y0216609D01*
X0089419Y0218244D01*
X0090237Y0219061D01*
X0091054Y0219061D01*
X0091872Y0218244D01*
X0092689Y0219061D01*
X0093506Y0219061D01*
X0094324Y0218244D01*
X0094324Y0216609D01*
X0093506Y0215792D01*
X0091872Y0217426D02*
X0091872Y0218244D01*
X0093506Y0220672D02*
X0094324Y0221489D01*
X0094324Y0223124D01*
X0093506Y0223941D01*
X0092689Y0223941D01*
X0091872Y0223124D01*
X0091872Y0222306D01*
X0091872Y0223124D02*
X0091054Y0223941D01*
X0090237Y0223941D01*
X0089419Y0223124D01*
X0089419Y0221489D01*
X0090237Y0220672D01*
X0094324Y0225552D02*
X0089419Y0228821D01*
X0101838Y0215725D02*
X0100470Y0214357D01*
X0101838Y0212990D01*
X0104574Y0212990D01*
X0103890Y0211582D02*
X0101154Y0211582D01*
X0100470Y0210898D01*
X0100470Y0208846D01*
X0104574Y0208846D01*
X0104574Y0210898D01*
X0103890Y0211582D01*
X0102522Y0212990D02*
X0102522Y0215725D01*
X0101838Y0215725D02*
X0104574Y0215725D01*
X0110470Y0212990D02*
X0114574Y0212990D01*
X0114574Y0215725D01*
X0113890Y0211582D02*
X0114574Y0210898D01*
X0114574Y0209530D01*
X0113890Y0208846D01*
X0111154Y0208846D01*
X0110470Y0209530D01*
X0110470Y0210898D01*
X0111154Y0211582D01*
X0111154Y0207438D02*
X0110470Y0206754D01*
X0110470Y0205386D01*
X0111154Y0204702D01*
X0111838Y0204702D01*
X0112522Y0205386D01*
X0112522Y0206754D01*
X0113206Y0207438D01*
X0113890Y0207438D01*
X0114574Y0206754D01*
X0114574Y0205386D01*
X0113890Y0204702D01*
X0104574Y0205386D02*
X0103890Y0204702D01*
X0104574Y0205386D02*
X0104574Y0206754D01*
X0103890Y0207438D01*
X0103206Y0207438D01*
X0102522Y0206754D01*
X0102522Y0205386D01*
X0101838Y0204702D01*
X0101154Y0204702D01*
X0100470Y0205386D01*
X0100470Y0206754D01*
X0101154Y0207438D01*
X0093506Y0201151D02*
X0091054Y0201151D01*
X0094324Y0177580D02*
X0094324Y0175127D01*
X0093506Y0174310D01*
X0091872Y0174310D01*
X0094324Y0167819D02*
X0089419Y0167819D01*
X0091872Y0164550D02*
X0093506Y0164550D01*
X0094324Y0165367D01*
X0094324Y0167819D01*
X0102724Y0166900D02*
X0103491Y0166133D01*
X0105026Y0166133D01*
X0105793Y0166900D01*
X0105793Y0167668D01*
X0105026Y0168435D01*
X0103491Y0168435D01*
X0102724Y0169202D01*
X0102724Y0169970D01*
X0103491Y0170737D01*
X0105026Y0170737D01*
X0105793Y0169970D01*
X0107328Y0168435D02*
X0107328Y0166900D01*
X0108095Y0166133D01*
X0109630Y0166133D01*
X0110397Y0166900D01*
X0110397Y0168435D01*
X0109630Y0169202D01*
X0108095Y0169202D01*
X0107328Y0168435D01*
X0111931Y0168435D02*
X0113466Y0168435D01*
X0112699Y0169970D02*
X0112699Y0166133D01*
X0115768Y0166900D02*
X0116535Y0166133D01*
X0115768Y0166900D02*
X0115768Y0169970D01*
X0115001Y0169202D02*
X0116535Y0169202D01*
X0118070Y0169202D02*
X0118070Y0166900D01*
X0118837Y0166133D01*
X0119605Y0166900D01*
X0120372Y0166133D01*
X0121139Y0166900D01*
X0121139Y0169202D01*
X0123441Y0169202D02*
X0124976Y0169202D01*
X0125743Y0168435D01*
X0125743Y0166133D01*
X0123441Y0166133D01*
X0122674Y0166900D01*
X0123441Y0167668D01*
X0125743Y0167668D01*
X0127278Y0167668D02*
X0128813Y0169202D01*
X0129580Y0169202D01*
X0131114Y0168435D02*
X0131882Y0169202D01*
X0133416Y0169202D01*
X0134184Y0168435D01*
X0134184Y0167668D01*
X0131114Y0167668D01*
X0131114Y0168435D02*
X0131114Y0166900D01*
X0131882Y0166133D01*
X0133416Y0166133D01*
X0133793Y0162737D02*
X0130724Y0162737D01*
X0132258Y0162737D02*
X0132258Y0158133D01*
X0135328Y0158133D02*
X0138397Y0162737D01*
X0135328Y0162737D02*
X0138397Y0158133D01*
X0136793Y0152737D02*
X0133724Y0152737D01*
X0133724Y0150435D01*
X0135258Y0151202D01*
X0136026Y0151202D01*
X0136793Y0150435D01*
X0136793Y0148900D01*
X0136026Y0148133D01*
X0134491Y0148133D01*
X0133724Y0148900D01*
X0127397Y0148900D02*
X0127397Y0149668D01*
X0126630Y0150435D01*
X0125862Y0150435D01*
X0126630Y0150435D02*
X0127397Y0151202D01*
X0127397Y0151970D01*
X0126630Y0152737D01*
X0125095Y0152737D01*
X0124328Y0151970D01*
X0121258Y0152737D02*
X0121258Y0148133D01*
X0119724Y0148133D02*
X0122793Y0148133D01*
X0124328Y0148900D02*
X0125095Y0148133D01*
X0126630Y0148133D01*
X0127397Y0148900D01*
X0124026Y0142737D02*
X0124793Y0141970D01*
X0124793Y0141202D01*
X0124026Y0140435D01*
X0122491Y0140435D01*
X0121724Y0141202D01*
X0121724Y0141970D01*
X0122491Y0142737D01*
X0124026Y0142737D01*
X0124026Y0140435D02*
X0124793Y0139668D01*
X0124793Y0138900D01*
X0124026Y0138133D01*
X0122491Y0138133D01*
X0121724Y0138900D01*
X0121724Y0139668D01*
X0122491Y0140435D01*
X0114422Y0148133D02*
X0112887Y0148133D01*
X0112120Y0148900D01*
X0112120Y0150435D01*
X0112887Y0151202D01*
X0114422Y0151202D01*
X0115189Y0150435D01*
X0115189Y0148900D01*
X0114422Y0148133D01*
X0119724Y0151202D02*
X0121258Y0152737D01*
X0119724Y0158133D02*
X0119724Y0162737D01*
X0122026Y0162737D01*
X0122793Y0161970D01*
X0122793Y0160435D01*
X0122026Y0159668D01*
X0119724Y0159668D01*
X0121258Y0159668D02*
X0122793Y0158133D01*
X0124328Y0158133D02*
X0127397Y0162737D01*
X0124328Y0162737D02*
X0127397Y0158133D01*
X0127278Y0166133D02*
X0127278Y0169202D01*
X0131154Y0178702D02*
X0133890Y0178702D01*
X0134574Y0179386D01*
X0134574Y0180754D01*
X0133890Y0181438D01*
X0132522Y0181438D01*
X0132522Y0180070D01*
X0131154Y0178702D02*
X0130470Y0179386D01*
X0130470Y0180754D01*
X0131154Y0181438D01*
X0130470Y0182846D02*
X0134574Y0185582D01*
X0130470Y0185582D01*
X0130470Y0186990D02*
X0130470Y0189041D01*
X0131154Y0189725D01*
X0133890Y0189725D01*
X0134574Y0189041D01*
X0134574Y0186990D01*
X0130470Y0186990D01*
X0130470Y0182846D02*
X0134574Y0182846D01*
X0141090Y0169202D02*
X0140322Y0168435D01*
X0141090Y0167668D01*
X0142624Y0167668D01*
X0143392Y0166900D01*
X0142624Y0166133D01*
X0140322Y0166133D01*
X0141090Y0169202D02*
X0143392Y0169202D01*
X0144926Y0168435D02*
X0145694Y0169202D01*
X0147228Y0169202D01*
X0147996Y0168435D01*
X0147996Y0167668D01*
X0144926Y0167668D01*
X0144926Y0168435D02*
X0144926Y0166900D01*
X0145694Y0166133D01*
X0147228Y0166133D01*
X0149530Y0166133D02*
X0149530Y0169202D01*
X0149530Y0167668D02*
X0151065Y0169202D01*
X0151832Y0169202D01*
X0153367Y0169202D02*
X0154134Y0169202D01*
X0154134Y0166133D01*
X0153367Y0166133D02*
X0154901Y0166133D01*
X0156436Y0166900D02*
X0157203Y0167668D01*
X0159505Y0167668D01*
X0159505Y0168435D02*
X0159505Y0166133D01*
X0157203Y0166133D01*
X0156436Y0166900D01*
X0157203Y0169202D02*
X0158738Y0169202D01*
X0159505Y0168435D01*
X0161040Y0166133D02*
X0162575Y0166133D01*
X0161807Y0166133D02*
X0161807Y0170737D01*
X0161040Y0170737D01*
X0154134Y0170737D02*
X0154134Y0171504D01*
X0136026Y0142737D02*
X0134491Y0142737D01*
X0133724Y0141970D01*
X0133724Y0141202D01*
X0134491Y0140435D01*
X0136793Y0140435D01*
X0136793Y0138900D02*
X0136793Y0141970D01*
X0136026Y0142737D01*
X0136793Y0138900D02*
X0136026Y0138133D01*
X0134491Y0138133D01*
X0133724Y0138900D01*
X0110585Y0149668D02*
X0107516Y0149668D01*
X0107516Y0150435D02*
X0108283Y0151202D01*
X0109818Y0151202D01*
X0110585Y0150435D01*
X0110585Y0149668D01*
X0109818Y0148133D02*
X0108283Y0148133D01*
X0107516Y0148900D01*
X0107516Y0150435D01*
X0105981Y0148133D02*
X0102912Y0148133D01*
X0102912Y0152737D01*
X0094324Y0142597D02*
X0091872Y0142597D01*
X0112699Y0169970D02*
X0113466Y0170737D01*
X0094324Y0104377D02*
X0091054Y0104377D01*
X0091054Y0101108D02*
X0093506Y0101108D01*
X0094324Y0101925D01*
X0094324Y0104377D01*
X0091054Y0099493D02*
X0091054Y0098676D01*
X0092689Y0097041D01*
X0094324Y0097041D02*
X0091054Y0097041D01*
X0091054Y0095422D02*
X0091054Y0093787D01*
X0090237Y0094605D02*
X0093506Y0094605D01*
X0094324Y0095422D01*
X0093506Y0092177D02*
X0092689Y0091359D01*
X0092689Y0089725D01*
X0091872Y0088907D01*
X0091054Y0089725D01*
X0091054Y0092177D01*
X0093506Y0092177D02*
X0094324Y0091359D01*
X0094324Y0088907D01*
X0094324Y0087296D02*
X0091872Y0087296D01*
X0091054Y0086479D01*
X0091054Y0084027D01*
X0094324Y0084027D01*
X0094324Y0082408D02*
X0094324Y0080774D01*
X0094324Y0081591D02*
X0091054Y0081591D01*
X0091054Y0080774D01*
X0091054Y0079163D02*
X0094324Y0075893D01*
X0094324Y0074283D02*
X0094324Y0071831D01*
X0093506Y0071013D01*
X0092689Y0071831D01*
X0092689Y0074283D01*
X0091872Y0074283D02*
X0094324Y0074283D01*
X0091872Y0074283D02*
X0091054Y0073465D01*
X0091054Y0071831D01*
X0091872Y0069403D02*
X0091054Y0068585D01*
X0091054Y0066133D01*
X0095958Y0066133D01*
X0094324Y0066133D02*
X0094324Y0068585D01*
X0093506Y0069403D01*
X0091872Y0069403D01*
X0091054Y0075893D02*
X0094324Y0079163D01*
X0089419Y0081591D02*
X0088602Y0081591D01*
X0120912Y0093400D02*
X0121679Y0092633D01*
X0123214Y0092633D01*
X0123981Y0093400D01*
X0123981Y0097237D01*
X0125516Y0095702D02*
X0127818Y0095702D01*
X0128585Y0094935D01*
X0128585Y0092633D01*
X0130120Y0093400D02*
X0130887Y0092633D01*
X0132422Y0092633D01*
X0133189Y0093400D01*
X0133189Y0094935D01*
X0132422Y0095702D01*
X0130887Y0095702D01*
X0130120Y0094935D01*
X0130120Y0093400D01*
X0125516Y0092633D02*
X0125516Y0095702D01*
X0120912Y0097237D02*
X0120912Y0093400D01*
X0144919Y0073509D02*
X0144919Y0070040D01*
X0150124Y0070040D01*
X0150124Y0068353D02*
X0150124Y0064883D01*
X0144919Y0064883D01*
X0144919Y0068353D01*
X0147521Y0070040D02*
X0147521Y0071775D01*
X0147521Y0066618D02*
X0147521Y0064883D01*
X0147521Y0063197D02*
X0145787Y0063197D01*
X0144919Y0062329D01*
X0144919Y0059727D01*
X0150124Y0059727D01*
X0148389Y0059727D02*
X0148389Y0062329D01*
X0147521Y0063197D01*
X0148389Y0061462D02*
X0150124Y0063197D01*
X0154919Y0062735D02*
X0154919Y0060133D01*
X0160124Y0060133D01*
X0158389Y0060133D02*
X0158389Y0062735D01*
X0157521Y0063603D01*
X0155787Y0063603D01*
X0154919Y0062735D01*
X0155787Y0065289D02*
X0156654Y0065289D01*
X0157521Y0066157D01*
X0157521Y0067892D01*
X0158389Y0068759D01*
X0159256Y0068759D01*
X0160124Y0067892D01*
X0160124Y0066157D01*
X0159256Y0065289D01*
X0160124Y0063603D02*
X0158389Y0061868D01*
X0155787Y0065289D02*
X0154919Y0066157D01*
X0154919Y0067892D01*
X0155787Y0068759D01*
X0154919Y0070446D02*
X0154919Y0073915D01*
X0154919Y0072181D02*
X0160124Y0072181D01*
X0164919Y0073024D02*
X0168389Y0073024D01*
X0170124Y0074759D01*
X0168389Y0076494D01*
X0164919Y0076494D01*
X0165787Y0071337D02*
X0166654Y0071337D01*
X0167521Y0070470D01*
X0168389Y0071337D01*
X0169256Y0071337D01*
X0170124Y0070470D01*
X0170124Y0068735D01*
X0169256Y0067868D01*
X0169256Y0066157D02*
X0170124Y0066157D01*
X0170124Y0065289D01*
X0169256Y0065289D01*
X0169256Y0066157D01*
X0169256Y0063603D02*
X0170124Y0062735D01*
X0170124Y0061000D01*
X0169256Y0060133D01*
X0167521Y0061868D02*
X0167521Y0062735D01*
X0168389Y0063603D01*
X0169256Y0063603D01*
X0167521Y0062735D02*
X0166654Y0063603D01*
X0165787Y0063603D01*
X0164919Y0062735D01*
X0164919Y0061000D01*
X0165787Y0060133D01*
X0165787Y0067868D02*
X0164919Y0068735D01*
X0164919Y0070470D01*
X0165787Y0071337D01*
X0167521Y0070470D02*
X0167521Y0069602D01*
X0174919Y0068759D02*
X0178389Y0068759D01*
X0180124Y0067024D01*
X0178389Y0065289D01*
X0174919Y0065289D01*
X0174919Y0063603D02*
X0174919Y0060133D01*
X0177521Y0060133D01*
X0176654Y0061868D01*
X0176654Y0062735D01*
X0177521Y0063603D01*
X0179256Y0063603D01*
X0180124Y0062735D01*
X0180124Y0061000D01*
X0179256Y0060133D01*
X0184919Y0061000D02*
X0185787Y0060133D01*
X0189256Y0060133D01*
X0190124Y0061000D01*
X0190124Y0062735D01*
X0189256Y0063603D01*
X0187521Y0063603D01*
X0187521Y0061868D01*
X0185787Y0063603D02*
X0184919Y0062735D01*
X0184919Y0061000D01*
X0184919Y0065289D02*
X0190124Y0068759D01*
X0184919Y0068759D01*
X0184919Y0070446D02*
X0184919Y0073048D01*
X0185787Y0073915D01*
X0189256Y0073915D01*
X0190124Y0073048D01*
X0190124Y0070446D01*
X0184919Y0070446D01*
X0184919Y0065289D02*
X0190124Y0065289D01*
X0194919Y0065289D02*
X0200124Y0068759D01*
X0194919Y0068759D01*
X0194919Y0070446D02*
X0194919Y0073048D01*
X0195787Y0073915D01*
X0199256Y0073915D01*
X0200124Y0073048D01*
X0200124Y0070446D01*
X0194919Y0070446D01*
X0194919Y0065289D02*
X0200124Y0065289D01*
X0199256Y0063603D02*
X0197521Y0063603D01*
X0197521Y0061868D01*
X0195787Y0063603D02*
X0194919Y0062735D01*
X0194919Y0061000D01*
X0195787Y0060133D01*
X0199256Y0060133D01*
X0200124Y0061000D01*
X0200124Y0062735D01*
X0199256Y0063603D01*
X0204919Y0063603D02*
X0208389Y0063603D01*
X0210124Y0061868D01*
X0208389Y0060133D01*
X0204919Y0060133D01*
X0204919Y0065289D02*
X0204919Y0067024D01*
X0204919Y0066157D02*
X0210124Y0066157D01*
X0210124Y0067024D02*
X0210124Y0065289D01*
X0210124Y0068727D02*
X0204919Y0068727D01*
X0210124Y0072197D01*
X0204919Y0072197D01*
X0150124Y0057173D02*
X0149256Y0058040D01*
X0145787Y0058040D01*
X0144919Y0057173D01*
X0144919Y0055438D01*
X0145787Y0054571D01*
X0149256Y0054571D01*
X0150124Y0055438D01*
X0150124Y0057173D01*
X0150124Y0052868D02*
X0150124Y0051133D01*
X0150124Y0052000D02*
X0144919Y0052000D01*
X0144919Y0051133D02*
X0144919Y0052868D01*
D12*
X0144524Y0092933D02*
X0150524Y0092933D01*
X0150584Y0092935D01*
X0150645Y0092940D01*
X0150704Y0092949D01*
X0150763Y0092962D01*
X0150822Y0092978D01*
X0150879Y0092998D01*
X0150934Y0093021D01*
X0150989Y0093048D01*
X0151041Y0093077D01*
X0151092Y0093110D01*
X0151141Y0093146D01*
X0151187Y0093184D01*
X0151231Y0093226D01*
X0151273Y0093270D01*
X0151311Y0093316D01*
X0151347Y0093365D01*
X0151380Y0093416D01*
X0151409Y0093468D01*
X0151436Y0093523D01*
X0151459Y0093578D01*
X0151479Y0093635D01*
X0151495Y0093694D01*
X0151508Y0093753D01*
X0151517Y0093812D01*
X0151522Y0093873D01*
X0151524Y0093933D01*
X0151524Y0103933D01*
X0151522Y0103993D01*
X0151517Y0104054D01*
X0151508Y0104113D01*
X0151495Y0104172D01*
X0151479Y0104231D01*
X0151459Y0104288D01*
X0151436Y0104343D01*
X0151409Y0104398D01*
X0151380Y0104450D01*
X0151347Y0104501D01*
X0151311Y0104550D01*
X0151273Y0104596D01*
X0151231Y0104640D01*
X0151187Y0104682D01*
X0151141Y0104720D01*
X0151092Y0104756D01*
X0151041Y0104789D01*
X0150989Y0104818D01*
X0150934Y0104845D01*
X0150879Y0104868D01*
X0150822Y0104888D01*
X0150763Y0104904D01*
X0150704Y0104917D01*
X0150645Y0104926D01*
X0150584Y0104931D01*
X0150524Y0104933D01*
X0144524Y0104933D01*
X0144464Y0104931D01*
X0144403Y0104926D01*
X0144344Y0104917D01*
X0144285Y0104904D01*
X0144226Y0104888D01*
X0144169Y0104868D01*
X0144114Y0104845D01*
X0144059Y0104818D01*
X0144007Y0104789D01*
X0143956Y0104756D01*
X0143907Y0104720D01*
X0143861Y0104682D01*
X0143817Y0104640D01*
X0143775Y0104596D01*
X0143737Y0104550D01*
X0143701Y0104501D01*
X0143668Y0104450D01*
X0143639Y0104398D01*
X0143612Y0104343D01*
X0143589Y0104288D01*
X0143569Y0104231D01*
X0143553Y0104172D01*
X0143540Y0104113D01*
X0143531Y0104054D01*
X0143526Y0103993D01*
X0143524Y0103933D01*
X0143524Y0093933D01*
X0143526Y0093873D01*
X0143531Y0093812D01*
X0143540Y0093753D01*
X0143553Y0093694D01*
X0143569Y0093635D01*
X0143589Y0093578D01*
X0143612Y0093523D01*
X0143639Y0093468D01*
X0143668Y0093416D01*
X0143701Y0093365D01*
X0143737Y0093316D01*
X0143775Y0093270D01*
X0143817Y0093226D01*
X0143861Y0093184D01*
X0143907Y0093146D01*
X0143956Y0093110D01*
X0144007Y0093077D01*
X0144059Y0093048D01*
X0144114Y0093021D01*
X0144169Y0092998D01*
X0144226Y0092978D01*
X0144285Y0092962D01*
X0144344Y0092949D01*
X0144403Y0092940D01*
X0144464Y0092935D01*
X0144524Y0092933D01*
X0153524Y0093933D02*
X0153524Y0103933D01*
X0153526Y0103993D01*
X0153531Y0104054D01*
X0153540Y0104113D01*
X0153553Y0104172D01*
X0153569Y0104231D01*
X0153589Y0104288D01*
X0153612Y0104343D01*
X0153639Y0104398D01*
X0153668Y0104450D01*
X0153701Y0104501D01*
X0153737Y0104550D01*
X0153775Y0104596D01*
X0153817Y0104640D01*
X0153861Y0104682D01*
X0153907Y0104720D01*
X0153956Y0104756D01*
X0154007Y0104789D01*
X0154059Y0104818D01*
X0154114Y0104845D01*
X0154169Y0104868D01*
X0154226Y0104888D01*
X0154285Y0104904D01*
X0154344Y0104917D01*
X0154403Y0104926D01*
X0154464Y0104931D01*
X0154524Y0104933D01*
X0160524Y0104933D01*
X0160584Y0104931D01*
X0160645Y0104926D01*
X0160704Y0104917D01*
X0160763Y0104904D01*
X0160822Y0104888D01*
X0160879Y0104868D01*
X0160934Y0104845D01*
X0160989Y0104818D01*
X0161041Y0104789D01*
X0161092Y0104756D01*
X0161141Y0104720D01*
X0161187Y0104682D01*
X0161231Y0104640D01*
X0161273Y0104596D01*
X0161311Y0104550D01*
X0161347Y0104501D01*
X0161380Y0104450D01*
X0161409Y0104398D01*
X0161436Y0104343D01*
X0161459Y0104288D01*
X0161479Y0104231D01*
X0161495Y0104172D01*
X0161508Y0104113D01*
X0161517Y0104054D01*
X0161522Y0103993D01*
X0161524Y0103933D01*
X0161524Y0093933D01*
X0161522Y0093873D01*
X0161517Y0093812D01*
X0161508Y0093753D01*
X0161495Y0093694D01*
X0161479Y0093635D01*
X0161459Y0093578D01*
X0161436Y0093523D01*
X0161409Y0093468D01*
X0161380Y0093416D01*
X0161347Y0093365D01*
X0161311Y0093316D01*
X0161273Y0093270D01*
X0161231Y0093226D01*
X0161187Y0093184D01*
X0161141Y0093146D01*
X0161092Y0093110D01*
X0161041Y0093077D01*
X0160989Y0093048D01*
X0160934Y0093021D01*
X0160879Y0092998D01*
X0160822Y0092978D01*
X0160763Y0092962D01*
X0160704Y0092949D01*
X0160645Y0092940D01*
X0160584Y0092935D01*
X0160524Y0092933D01*
X0154524Y0092933D01*
X0154464Y0092935D01*
X0154403Y0092940D01*
X0154344Y0092949D01*
X0154285Y0092962D01*
X0154226Y0092978D01*
X0154169Y0092998D01*
X0154114Y0093021D01*
X0154059Y0093048D01*
X0154007Y0093077D01*
X0153956Y0093110D01*
X0153907Y0093146D01*
X0153861Y0093184D01*
X0153817Y0093226D01*
X0153775Y0093270D01*
X0153737Y0093316D01*
X0153701Y0093365D01*
X0153668Y0093416D01*
X0153639Y0093468D01*
X0153612Y0093523D01*
X0153589Y0093578D01*
X0153569Y0093635D01*
X0153553Y0093694D01*
X0153540Y0093753D01*
X0153531Y0093812D01*
X0153526Y0093873D01*
X0153524Y0093933D01*
X0225318Y0060881D02*
X0225318Y0058746D01*
X0226386Y0057679D01*
X0230656Y0057679D01*
X0226386Y0061949D01*
X0230656Y0061949D01*
X0231724Y0060881D01*
X0231724Y0058746D01*
X0230656Y0057679D01*
X0231724Y0055503D02*
X0227453Y0055503D01*
X0225318Y0053368D01*
X0227453Y0051233D01*
X0231724Y0051233D01*
X0228521Y0051233D02*
X0228521Y0055503D01*
X0225318Y0060881D02*
X0226386Y0061949D01*
X0251000Y0117733D02*
X0249933Y0118801D01*
X0251000Y0117733D02*
X0253135Y0117733D01*
X0254203Y0118801D01*
X0254203Y0120936D01*
X0253135Y0122003D01*
X0252068Y0122003D01*
X0249933Y0120936D01*
X0249933Y0124139D01*
X0254203Y0124139D01*
X0256378Y0124139D02*
X0256378Y0119868D01*
X0258513Y0117733D01*
X0260648Y0119868D01*
X0260648Y0124139D01*
X0261021Y0124558D02*
X0261021Y0120288D01*
X0258886Y0122423D02*
X0263156Y0122423D01*
X0261021Y0140288D02*
X0261021Y0144558D01*
X0259513Y0164733D02*
X0261648Y0166868D01*
X0261648Y0171139D01*
X0257378Y0171139D02*
X0257378Y0166868D01*
X0259513Y0164733D01*
X0255203Y0165801D02*
X0255203Y0167936D01*
X0254135Y0169003D01*
X0253068Y0169003D01*
X0250933Y0167936D01*
X0250933Y0171139D01*
X0255203Y0171139D01*
X0255203Y0175733D02*
X0255203Y0182139D01*
X0257378Y0182139D02*
X0260581Y0182139D01*
X0261648Y0181071D01*
X0261648Y0176801D01*
X0260581Y0175733D01*
X0257378Y0175733D01*
X0257378Y0182139D01*
X0250933Y0182139D02*
X0255203Y0175733D01*
X0250933Y0175733D02*
X0250933Y0182139D01*
X0248757Y0181071D02*
X0247690Y0182139D01*
X0245555Y0182139D01*
X0244487Y0181071D01*
X0244487Y0176801D01*
X0245555Y0175733D01*
X0247690Y0175733D01*
X0248757Y0176801D01*
X0248757Y0178936D01*
X0246622Y0178936D01*
X0250933Y0165801D02*
X0252000Y0164733D01*
X0254135Y0164733D01*
X0255203Y0165801D01*
X0208648Y0166071D02*
X0208648Y0161801D01*
X0207581Y0160733D01*
X0204378Y0160733D01*
X0204378Y0167139D01*
X0207581Y0167139D01*
X0208648Y0166071D01*
X0208648Y0170733D02*
X0204378Y0177139D01*
X0202203Y0176071D02*
X0202203Y0173936D01*
X0201135Y0172868D01*
X0197933Y0172868D01*
X0200068Y0172868D02*
X0202203Y0170733D01*
X0204378Y0170733D02*
X0208648Y0177139D01*
X0208648Y0180733D02*
X0204378Y0187139D01*
X0202203Y0187139D02*
X0197933Y0187139D01*
X0200068Y0187139D02*
X0200068Y0180733D01*
X0201135Y0177139D02*
X0197933Y0177139D01*
X0197933Y0170733D01*
X0195757Y0171801D02*
X0194690Y0172868D01*
X0192555Y0172868D01*
X0191487Y0173936D01*
X0192555Y0175003D01*
X0195757Y0175003D01*
X0195757Y0171801D02*
X0194690Y0170733D01*
X0191487Y0170733D01*
X0189312Y0170733D02*
X0189312Y0175003D01*
X0185042Y0175003D02*
X0185042Y0171801D01*
X0186109Y0170733D01*
X0189312Y0170733D01*
X0192555Y0167139D02*
X0191487Y0166071D01*
X0191487Y0161801D01*
X0192555Y0160733D01*
X0194690Y0160733D01*
X0195757Y0161801D01*
X0195757Y0163936D01*
X0193622Y0163936D01*
X0195757Y0166071D02*
X0194690Y0167139D01*
X0192555Y0167139D01*
X0197933Y0167139D02*
X0202203Y0160733D01*
X0202203Y0167139D01*
X0197933Y0167139D02*
X0197933Y0160733D01*
X0182866Y0171801D02*
X0181799Y0170733D01*
X0178596Y0170733D01*
X0178596Y0177139D01*
X0181799Y0177139D01*
X0182866Y0176071D01*
X0182866Y0175003D01*
X0181799Y0173936D01*
X0178596Y0173936D01*
X0181799Y0173936D02*
X0182866Y0172868D01*
X0182866Y0171801D01*
X0176421Y0177139D02*
X0172151Y0177139D01*
X0172151Y0170733D01*
X0172151Y0173936D02*
X0174286Y0173936D01*
X0172151Y0180733D02*
X0172151Y0187139D01*
X0176421Y0187139D01*
X0178596Y0187139D02*
X0181799Y0187139D01*
X0182866Y0186071D01*
X0182866Y0185003D01*
X0181799Y0183936D01*
X0178596Y0183936D01*
X0178596Y0180733D02*
X0178596Y0187139D01*
X0181799Y0183936D02*
X0182866Y0182868D01*
X0182866Y0181801D01*
X0181799Y0180733D01*
X0178596Y0180733D01*
X0174286Y0183936D02*
X0172151Y0183936D01*
X0185042Y0185003D02*
X0185042Y0181801D01*
X0186109Y0180733D01*
X0189312Y0180733D01*
X0189312Y0185003D01*
X0191487Y0183936D02*
X0192555Y0185003D01*
X0195757Y0185003D01*
X0194690Y0182868D02*
X0192555Y0182868D01*
X0191487Y0183936D01*
X0191487Y0180733D02*
X0194690Y0180733D01*
X0195757Y0181801D01*
X0194690Y0182868D01*
X0201135Y0177139D02*
X0202203Y0176071D01*
X0204378Y0180733D02*
X0208648Y0187139D01*
X0206513Y0190733D02*
X0208648Y0192868D01*
X0208648Y0197139D01*
X0204378Y0197139D02*
X0204378Y0192868D01*
X0206513Y0190733D01*
X0202203Y0191801D02*
X0201135Y0190733D01*
X0199000Y0190733D01*
X0197933Y0191801D01*
X0197933Y0193936D02*
X0200068Y0195003D01*
X0201135Y0195003D01*
X0202203Y0193936D01*
X0202203Y0191801D01*
X0197933Y0193936D02*
X0197933Y0197139D01*
X0202203Y0197139D01*
X0204318Y0210788D02*
X0204318Y0215058D01*
X0205386Y0215058D01*
X0209656Y0210788D01*
X0210724Y0210788D01*
X0215386Y0212923D02*
X0217521Y0210788D01*
X0217521Y0213990D01*
X0218588Y0215058D01*
X0219656Y0215058D01*
X0220724Y0213990D01*
X0220724Y0211855D01*
X0219656Y0210788D01*
X0217521Y0210788D01*
X0215386Y0212923D02*
X0214318Y0215058D01*
X0224318Y0215058D02*
X0224318Y0210788D01*
X0227521Y0210788D01*
X0226453Y0212923D01*
X0226453Y0213990D01*
X0227521Y0215058D01*
X0229656Y0215058D01*
X0230724Y0213990D01*
X0230724Y0211855D01*
X0229656Y0210788D01*
X0234318Y0213990D02*
X0237521Y0210788D01*
X0237521Y0215058D01*
X0240724Y0213990D02*
X0234318Y0213990D01*
X0244318Y0213990D02*
X0245386Y0215058D01*
X0246453Y0215058D01*
X0247521Y0213990D01*
X0248588Y0215058D01*
X0249656Y0215058D01*
X0250724Y0213990D01*
X0250724Y0211855D01*
X0249656Y0210788D01*
X0247521Y0212923D02*
X0247521Y0213990D01*
X0244318Y0213990D02*
X0244318Y0211855D01*
X0245386Y0210788D01*
X0254318Y0211855D02*
X0255386Y0210788D01*
X0254318Y0211855D02*
X0254318Y0213990D01*
X0255386Y0215058D01*
X0256453Y0215058D01*
X0260724Y0210788D01*
X0260724Y0215058D01*
X0264318Y0212923D02*
X0270724Y0212923D01*
X0270724Y0210788D02*
X0270724Y0215058D01*
X0274318Y0213990D02*
X0275386Y0215058D01*
X0279656Y0210788D01*
X0280724Y0211855D01*
X0280724Y0213990D01*
X0279656Y0215058D01*
X0275386Y0215058D01*
X0274318Y0213990D02*
X0274318Y0211855D01*
X0275386Y0210788D01*
X0279656Y0210788D01*
X0266453Y0210788D02*
X0264318Y0212923D01*
X0195724Y0213990D02*
X0195724Y0211855D01*
X0194656Y0210788D01*
X0193588Y0210788D01*
X0192521Y0211855D01*
X0192521Y0213990D01*
X0193588Y0215058D01*
X0194656Y0215058D01*
X0195724Y0213990D01*
X0192521Y0213990D02*
X0191453Y0215058D01*
X0190386Y0215058D01*
X0189318Y0213990D01*
X0189318Y0211855D01*
X0190386Y0210788D01*
X0191453Y0210788D01*
X0192521Y0211855D01*
X0185724Y0211855D02*
X0184656Y0210788D01*
X0185724Y0211855D02*
X0185724Y0213990D01*
X0184656Y0215058D01*
X0180386Y0215058D01*
X0179318Y0213990D01*
X0179318Y0211855D01*
X0180386Y0210788D01*
X0181453Y0210788D01*
X0182521Y0211855D01*
X0182521Y0215058D01*
D13*
X0212524Y0196433D02*
X0212524Y0191433D01*
X0215024Y0188933D01*
X0212524Y0186433D01*
X0212524Y0181433D01*
X0215024Y0178933D01*
X0212524Y0176433D01*
X0212524Y0171433D01*
X0215024Y0168933D01*
X0212524Y0166433D01*
X0212524Y0161433D01*
X0215024Y0158933D01*
X0220024Y0158933D01*
X0222524Y0161433D01*
X0222524Y0166433D01*
X0220024Y0168933D01*
X0222524Y0171433D01*
X0222524Y0176433D01*
X0220024Y0178933D01*
X0222524Y0181433D01*
X0222524Y0186433D01*
X0220024Y0188933D01*
X0222524Y0191433D01*
X0222524Y0196433D01*
X0220024Y0198933D01*
X0215024Y0198933D01*
X0212524Y0196433D01*
X0264807Y0149681D02*
X0264807Y0146531D01*
X0274650Y0146531D01*
X0274650Y0141807D01*
X0278587Y0149681D02*
X0264807Y0149681D01*
X0247524Y0141433D02*
X0247524Y0136433D01*
X0245024Y0133933D01*
X0247524Y0131433D01*
X0247524Y0126433D01*
X0245024Y0123933D01*
X0240024Y0123933D01*
X0237524Y0126433D01*
X0237524Y0131433D01*
X0240024Y0133933D01*
X0237524Y0136433D01*
X0237524Y0141433D01*
X0240024Y0143933D01*
X0245024Y0143933D01*
X0247524Y0141433D01*
X0264807Y0121335D02*
X0264807Y0118185D01*
X0278587Y0118185D01*
X0274650Y0121335D02*
X0264807Y0121335D01*
X0274650Y0121335D02*
X0274650Y0126059D01*
X0294335Y0126059D02*
X0294335Y0141807D01*
X0217524Y0141433D02*
X0217524Y0136433D01*
X0215024Y0133933D01*
X0217524Y0131433D01*
X0217524Y0126433D01*
X0215024Y0123933D01*
X0210024Y0123933D01*
X0207524Y0126433D01*
X0207524Y0131433D01*
X0210024Y0133933D01*
X0207524Y0136433D01*
X0207524Y0141433D01*
X0210024Y0143933D01*
X0215024Y0143933D01*
X0217524Y0141433D01*
X0203686Y0117133D02*
X0191361Y0117133D01*
X0191285Y0117131D01*
X0191210Y0117125D01*
X0191134Y0117116D01*
X0191059Y0117102D01*
X0190985Y0117085D01*
X0190912Y0117064D01*
X0190840Y0117040D01*
X0190770Y0117012D01*
X0190701Y0116980D01*
X0190633Y0116945D01*
X0190568Y0116906D01*
X0190504Y0116864D01*
X0190443Y0116819D01*
X0190384Y0116771D01*
X0190328Y0116720D01*
X0190274Y0116666D01*
X0190223Y0116610D01*
X0190175Y0116551D01*
X0190130Y0116490D01*
X0190088Y0116426D01*
X0190049Y0116361D01*
X0190014Y0116293D01*
X0189982Y0116224D01*
X0189954Y0116154D01*
X0189930Y0116082D01*
X0189909Y0116009D01*
X0189892Y0115935D01*
X0189878Y0115860D01*
X0189869Y0115784D01*
X0189863Y0115709D01*
X0189861Y0115633D01*
X0189861Y0082233D01*
X0189861Y0082234D02*
X0189873Y0082153D01*
X0189888Y0082073D01*
X0189907Y0081994D01*
X0189929Y0081916D01*
X0189956Y0081839D01*
X0189985Y0081763D01*
X0190019Y0081689D01*
X0190056Y0081617D01*
X0190096Y0081546D01*
X0190140Y0081478D01*
X0190187Y0081411D01*
X0190237Y0081347D01*
X0190290Y0081286D01*
X0190346Y0081227D01*
X0190405Y0081170D01*
X0190466Y0081117D01*
X0190530Y0081066D01*
X0190596Y0081019D01*
X0190664Y0080975D01*
X0190734Y0080934D01*
X0190806Y0080896D01*
X0190880Y0080862D01*
X0190956Y0080832D01*
X0191032Y0080805D01*
X0191110Y0080782D01*
X0191189Y0080762D01*
X0191269Y0080747D01*
X0191350Y0080735D01*
X0191430Y0080727D01*
X0191512Y0080723D01*
X0191593Y0080722D01*
X0191674Y0080726D01*
X0191755Y0080733D01*
X0191805Y0080733D02*
X0195124Y0080733D01*
X0195124Y0080933D02*
X0195126Y0081031D01*
X0195132Y0081129D01*
X0195141Y0081227D01*
X0195155Y0081324D01*
X0195172Y0081421D01*
X0195193Y0081517D01*
X0195218Y0081612D01*
X0195246Y0081706D01*
X0195279Y0081798D01*
X0195314Y0081890D01*
X0195354Y0081980D01*
X0195396Y0082068D01*
X0195443Y0082155D01*
X0195492Y0082239D01*
X0195545Y0082322D01*
X0195601Y0082402D01*
X0195661Y0082481D01*
X0195723Y0082557D01*
X0195788Y0082630D01*
X0195856Y0082701D01*
X0195927Y0082769D01*
X0196000Y0082834D01*
X0196076Y0082896D01*
X0196155Y0082956D01*
X0196235Y0083012D01*
X0196318Y0083065D01*
X0196402Y0083114D01*
X0196489Y0083161D01*
X0196577Y0083203D01*
X0196667Y0083243D01*
X0196759Y0083278D01*
X0196851Y0083311D01*
X0196945Y0083339D01*
X0197040Y0083364D01*
X0197136Y0083385D01*
X0197233Y0083402D01*
X0197330Y0083416D01*
X0197428Y0083425D01*
X0197526Y0083431D01*
X0197624Y0083433D01*
X0197722Y0083431D01*
X0197820Y0083425D01*
X0197918Y0083416D01*
X0198015Y0083402D01*
X0198112Y0083385D01*
X0198208Y0083364D01*
X0198303Y0083339D01*
X0198397Y0083311D01*
X0198489Y0083278D01*
X0198581Y0083243D01*
X0198671Y0083203D01*
X0198759Y0083161D01*
X0198846Y0083114D01*
X0198930Y0083065D01*
X0199013Y0083012D01*
X0199093Y0082956D01*
X0199172Y0082896D01*
X0199248Y0082834D01*
X0199321Y0082769D01*
X0199392Y0082701D01*
X0199460Y0082630D01*
X0199525Y0082557D01*
X0199587Y0082481D01*
X0199647Y0082402D01*
X0199703Y0082322D01*
X0199756Y0082239D01*
X0199805Y0082155D01*
X0199852Y0082068D01*
X0199894Y0081980D01*
X0199934Y0081890D01*
X0199969Y0081798D01*
X0200002Y0081706D01*
X0200030Y0081612D01*
X0200055Y0081517D01*
X0200076Y0081421D01*
X0200093Y0081324D01*
X0200107Y0081227D01*
X0200116Y0081129D01*
X0200122Y0081031D01*
X0200124Y0080933D01*
X0200124Y0080733D02*
X0204080Y0080733D01*
X0204080Y0080734D02*
X0204150Y0080746D01*
X0204220Y0080763D01*
X0204288Y0080783D01*
X0204356Y0080806D01*
X0204422Y0080834D01*
X0204486Y0080865D01*
X0204548Y0080899D01*
X0204609Y0080937D01*
X0204668Y0080977D01*
X0204724Y0081021D01*
X0204777Y0081068D01*
X0204829Y0081118D01*
X0204877Y0081171D01*
X0204922Y0081226D01*
X0204965Y0081283D01*
X0205004Y0081343D01*
X0205040Y0081405D01*
X0205072Y0081468D01*
X0205101Y0081533D01*
X0205127Y0081600D01*
X0205149Y0081668D01*
X0205167Y0081737D01*
X0205181Y0081807D01*
X0205191Y0081878D01*
X0205198Y0081949D01*
X0205201Y0082020D01*
X0205200Y0082091D01*
X0205195Y0082163D01*
X0205186Y0082233D01*
X0205186Y0116027D01*
X0205174Y0116097D01*
X0205157Y0116167D01*
X0205137Y0116235D01*
X0205113Y0116302D01*
X0205086Y0116368D01*
X0205055Y0116433D01*
X0205021Y0116495D01*
X0204983Y0116556D01*
X0204942Y0116614D01*
X0204898Y0116671D01*
X0204851Y0116724D01*
X0204801Y0116775D01*
X0204749Y0116824D01*
X0204694Y0116869D01*
X0204636Y0116912D01*
X0204577Y0116951D01*
X0204515Y0116987D01*
X0204451Y0117019D01*
X0204386Y0117048D01*
X0204320Y0117074D01*
X0204252Y0117095D01*
X0204182Y0117114D01*
X0204113Y0117128D01*
X0204042Y0117138D01*
X0203971Y0117145D01*
X0203900Y0117148D01*
X0203828Y0117147D01*
X0203757Y0117142D01*
X0203686Y0117133D01*
X0077124Y0118511D02*
X0077124Y0123115D01*
X0075589Y0124650D01*
X0074054Y0123115D01*
X0074054Y0120046D01*
X0072520Y0118511D01*
X0070985Y0120046D01*
X0070985Y0124650D01*
X0070985Y0127719D02*
X0070985Y0130788D01*
X0069450Y0129253D02*
X0075589Y0129253D01*
X0077124Y0130788D01*
X0077124Y0133857D02*
X0070985Y0133857D01*
X0074054Y0133857D02*
X0070985Y0136927D01*
X0070985Y0138461D01*
X0070985Y0141531D02*
X0075589Y0141531D01*
X0077124Y0143065D01*
X0077124Y0147669D01*
X0070985Y0147669D01*
X0070985Y0150738D02*
X0070985Y0152273D01*
X0072520Y0153808D01*
X0070985Y0155342D01*
X0072520Y0156877D01*
X0077124Y0156877D01*
X0075589Y0159946D02*
X0072520Y0159946D01*
X0070985Y0161481D01*
X0070985Y0164550D01*
X0072520Y0166085D01*
X0074054Y0166085D01*
X0074054Y0159946D01*
X0075589Y0159946D02*
X0077124Y0161481D01*
X0077124Y0164550D01*
X0077124Y0169154D02*
X0070985Y0169154D01*
X0070985Y0173758D01*
X0072520Y0175293D01*
X0077124Y0175293D01*
X0075589Y0179897D02*
X0069450Y0179897D01*
X0070985Y0178362D02*
X0070985Y0181431D01*
X0072520Y0184501D02*
X0070985Y0186035D01*
X0070985Y0190639D01*
X0074054Y0189105D02*
X0074054Y0186035D01*
X0072520Y0184501D01*
X0077124Y0184501D02*
X0077124Y0189105D01*
X0075589Y0190639D01*
X0074054Y0189105D01*
X0077124Y0181431D02*
X0075589Y0179897D01*
X0077124Y0153808D02*
X0072520Y0153808D01*
X0070985Y0150738D02*
X0077124Y0150738D01*
X0077124Y0115442D02*
X0072520Y0115442D01*
X0070985Y0113907D01*
X0070985Y0109303D01*
X0077124Y0109303D01*
X0077124Y0106234D02*
X0077124Y0103165D01*
X0077124Y0104699D02*
X0067916Y0104699D01*
X0067916Y0103165D02*
X0067916Y0106234D01*
X0070985Y0090887D02*
X0077124Y0084749D01*
X0077124Y0081680D02*
X0072520Y0081680D01*
X0070985Y0080145D01*
X0070985Y0077076D01*
X0074054Y0077076D02*
X0074054Y0081680D01*
X0077124Y0081680D02*
X0077124Y0077076D01*
X0075589Y0075541D01*
X0074054Y0077076D01*
X0072520Y0072472D02*
X0069450Y0072472D01*
X0067916Y0070937D01*
X0067916Y0066333D01*
X0077124Y0066333D01*
X0074054Y0066333D02*
X0074054Y0070937D01*
X0072520Y0072472D01*
X0070985Y0084749D02*
X0077124Y0090887D01*
D14*
X0163674Y0089018D02*
X0164641Y0089986D01*
X0164641Y0087083D01*
X0163674Y0087083D02*
X0165609Y0087083D01*
X0166620Y0087567D02*
X0168555Y0089502D01*
X0168555Y0087567D01*
X0168071Y0087083D01*
X0167104Y0087083D01*
X0166620Y0087567D01*
X0166620Y0089502D01*
X0167104Y0089986D01*
X0168071Y0089986D01*
X0168555Y0089502D01*
X0169567Y0089502D02*
X0170050Y0089986D01*
X0171018Y0089986D01*
X0171502Y0089502D01*
X0169567Y0087567D01*
X0170050Y0087083D01*
X0171018Y0087083D01*
X0171502Y0087567D01*
X0171502Y0089502D01*
X0169567Y0089502D02*
X0169567Y0087567D01*
X0175460Y0087083D02*
X0175460Y0089018D01*
X0176911Y0089018D01*
X0177395Y0088534D01*
X0177395Y0087083D01*
X0178406Y0087083D02*
X0178406Y0089986D01*
X0180341Y0089986D01*
X0179374Y0088534D02*
X0178406Y0088534D01*
X0178460Y0117083D02*
X0178460Y0119018D01*
X0179911Y0119018D01*
X0180395Y0118534D01*
X0180395Y0117083D01*
X0181406Y0117083D02*
X0181406Y0119986D01*
X0183341Y0119986D01*
X0182374Y0118534D02*
X0181406Y0118534D01*
X0174502Y0117567D02*
X0174018Y0117083D01*
X0173050Y0117083D01*
X0172567Y0117567D01*
X0174502Y0119502D01*
X0174502Y0117567D01*
X0174502Y0119502D02*
X0174018Y0119986D01*
X0173050Y0119986D01*
X0172567Y0119502D01*
X0172567Y0117567D01*
X0171555Y0117567D02*
X0171071Y0117083D01*
X0170104Y0117083D01*
X0169620Y0117567D01*
X0171555Y0119502D01*
X0171555Y0117567D01*
X0171555Y0119502D02*
X0171071Y0119986D01*
X0170104Y0119986D01*
X0169620Y0119502D01*
X0169620Y0117567D01*
X0168609Y0117083D02*
X0166674Y0117083D01*
X0167641Y0117083D02*
X0167641Y0119986D01*
X0166674Y0119018D01*
X0124074Y0204560D02*
X0122005Y0204560D01*
X0120971Y0205595D01*
X0122005Y0206629D01*
X0124074Y0206629D01*
X0124074Y0207691D02*
X0120971Y0207691D01*
X0120971Y0209242D01*
X0121488Y0209759D01*
X0122522Y0209759D01*
X0123039Y0209242D01*
X0123039Y0207691D01*
X0123039Y0208725D02*
X0124074Y0209759D01*
X0124074Y0210822D02*
X0124074Y0212890D01*
X0124074Y0213952D02*
X0120971Y0213952D01*
X0120971Y0216021D01*
X0122522Y0214987D02*
X0122522Y0213952D01*
X0120971Y0212890D02*
X0120971Y0210822D01*
X0124074Y0210822D01*
X0122522Y0210822D02*
X0122522Y0211856D01*
X0122522Y0206629D02*
X0122522Y0204560D01*
D15*
X0283524Y0195933D02*
X0292524Y0195933D01*
X0292524Y0233933D01*
X0283524Y0233933D01*
X0283524Y0223933D02*
X0286524Y0223933D01*
X0286524Y0213933D01*
X0283524Y0213933D01*
D16*
X0163524Y0106933D02*
X0141524Y0106933D01*
X0141524Y0102933D01*
X0136524Y0102933D01*
X0136524Y0094933D02*
X0141524Y0094933D01*
X0141524Y0090933D01*
X0163524Y0090933D01*
X0163524Y0094933D01*
X0163524Y0102933D02*
X0163524Y0106933D01*
D17*
X0140524Y0135933D02*
X0129524Y0135933D01*
X0117524Y0135933D01*
X0117524Y0145933D01*
X0140524Y0145933D01*
X0140524Y0155933D01*
X0129524Y0155933D01*
X0129524Y0135933D01*
X0140524Y0135933D02*
X0140524Y0145933D01*
X0129524Y0155933D02*
X0117524Y0155933D01*
X0117524Y0145933D01*
D18*
X0091924Y0049383D03*
D19*
X0091824Y0049383D03*
X0079924Y0050183D03*
X0078424Y0051483D03*
X0078324Y0051483D03*
X0078224Y0051483D03*
D20*
X0091724Y0049383D03*
D21*
X0091624Y0049383D03*
D22*
X0091524Y0049383D03*
X0086624Y0042283D03*
X0076624Y0058683D03*
X0076124Y0058583D03*
X0076024Y0058583D03*
X0075724Y0058483D03*
X0075624Y0058483D03*
X0075424Y0058383D03*
X0075324Y0058383D03*
X0075124Y0058283D03*
X0074824Y0058183D03*
D23*
X0073224Y0057233D03*
X0073124Y0057133D03*
X0071424Y0056033D03*
X0070024Y0054833D03*
X0069924Y0054733D03*
X0078924Y0058633D03*
X0079024Y0058633D03*
X0079124Y0058633D03*
X0091424Y0049433D03*
D24*
X0091324Y0049383D03*
X0085424Y0042183D03*
X0085324Y0042183D03*
X0072424Y0056383D03*
X0071924Y0056083D03*
X0080424Y0058183D03*
D25*
X0081124Y0057783D03*
X0091224Y0049383D03*
X0084224Y0041883D03*
X0084124Y0041883D03*
D26*
X0082924Y0041633D03*
X0082824Y0041633D03*
X0082724Y0041633D03*
X0091124Y0049433D03*
X0081524Y0057433D03*
X0069624Y0045233D03*
X0069724Y0045133D03*
X0069824Y0045033D03*
D27*
X0071124Y0044083D03*
X0071224Y0043983D03*
X0071324Y0043983D03*
X0071424Y0043883D03*
X0071724Y0043683D03*
X0078924Y0041283D03*
X0079024Y0041283D03*
X0079124Y0041283D03*
X0079424Y0041383D03*
X0079524Y0041383D03*
X0079624Y0041383D03*
X0079724Y0041383D03*
X0079824Y0041383D03*
X0079924Y0041383D03*
X0080024Y0041383D03*
X0080124Y0041383D03*
X0080224Y0041383D03*
X0080324Y0041383D03*
X0080424Y0041383D03*
X0080524Y0041383D03*
X0080624Y0041383D03*
X0091024Y0049383D03*
X0087324Y0054483D03*
D28*
X0082024Y0056833D03*
X0090924Y0049433D03*
X0074024Y0042633D03*
D29*
X0074324Y0042783D03*
X0074524Y0042683D03*
X0074624Y0042583D03*
X0074724Y0042583D03*
X0074924Y0042483D03*
X0090824Y0049383D03*
D30*
X0090724Y0049383D03*
X0086624Y0054283D03*
D31*
X0090624Y0049383D03*
D32*
X0090524Y0049383D03*
X0086224Y0054183D03*
D33*
X0085824Y0054283D03*
X0085724Y0054283D03*
X0090424Y0049383D03*
D34*
X0090324Y0049383D03*
X0085124Y0054483D03*
X0085024Y0054483D03*
D35*
X0084524Y0054633D03*
X0084424Y0054633D03*
X0090224Y0049433D03*
D36*
X0090124Y0049383D03*
X0083824Y0054783D03*
X0083724Y0054783D03*
X0083624Y0054783D03*
X0068024Y0049383D03*
D37*
X0082424Y0054983D03*
X0082524Y0054983D03*
X0082624Y0054983D03*
X0082724Y0054983D03*
X0090024Y0049383D03*
D38*
X0089924Y0049383D03*
X0068224Y0049383D03*
D39*
X0089824Y0049383D03*
D40*
X0089724Y0049383D03*
X0068424Y0049383D03*
D41*
X0089624Y0049383D03*
D42*
X0089524Y0049383D03*
X0068624Y0049383D03*
D43*
X0089424Y0049433D03*
D44*
X0089324Y0049383D03*
D45*
X0089224Y0049383D03*
X0068924Y0049383D03*
D46*
X0089124Y0049433D03*
D47*
X0089024Y0049383D03*
D48*
X0088924Y0049383D03*
X0076324Y0045083D03*
D49*
X0076924Y0045083D03*
X0077024Y0045083D03*
X0077124Y0045083D03*
X0077224Y0045083D03*
X0077324Y0045083D03*
X0077424Y0045083D03*
X0069324Y0049383D03*
X0088824Y0049383D03*
D50*
X0088724Y0049383D03*
X0069424Y0049383D03*
D51*
X0088624Y0049383D03*
D52*
X0088524Y0049433D03*
D53*
X0088424Y0049433D03*
D54*
X0088324Y0049433D03*
D55*
X0088224Y0049433D03*
D56*
X0088124Y0049433D03*
D57*
X0088024Y0049433D03*
D58*
X0087924Y0049433D03*
D59*
X0087824Y0049433D03*
D60*
X0087724Y0049383D03*
D61*
X0087624Y0042233D03*
D62*
X0082224Y0041533D03*
X0082124Y0041533D03*
X0082024Y0041533D03*
X0081924Y0041533D03*
X0070224Y0044733D03*
X0070124Y0044833D03*
X0081624Y0057333D03*
X0087624Y0054333D03*
D63*
X0087524Y0042183D03*
D64*
X0081824Y0041483D03*
X0081724Y0041483D03*
X0081624Y0041483D03*
X0081524Y0041483D03*
X0081424Y0041483D03*
X0078724Y0041283D03*
X0070524Y0044483D03*
X0070424Y0044583D03*
X0070324Y0044683D03*
X0067124Y0049383D03*
X0087524Y0054383D03*
D65*
X0087424Y0042133D03*
D66*
X0081324Y0041433D03*
X0081224Y0041433D03*
X0081124Y0041433D03*
X0081024Y0041433D03*
X0080924Y0041433D03*
X0080824Y0041433D03*
X0080724Y0041433D03*
X0078824Y0041233D03*
X0071024Y0044133D03*
X0070924Y0044233D03*
X0070824Y0044333D03*
X0070724Y0044333D03*
X0070624Y0044433D03*
X0081724Y0057233D03*
X0087424Y0054433D03*
D67*
X0087324Y0042083D03*
D68*
X0087224Y0042033D03*
X0087124Y0042033D03*
D69*
X0079324Y0041333D03*
X0079224Y0041333D03*
X0073624Y0042633D03*
X0073524Y0042633D03*
X0073424Y0042733D03*
X0073324Y0042733D03*
X0073224Y0042833D03*
X0073124Y0042833D03*
X0073024Y0042933D03*
X0072824Y0043033D03*
X0072624Y0043133D03*
X0072424Y0043233D03*
X0072324Y0043333D03*
X0072124Y0043433D03*
X0072024Y0043533D03*
X0071924Y0043533D03*
X0071824Y0043633D03*
X0071624Y0043733D03*
X0071524Y0043833D03*
X0081824Y0057133D03*
X0087224Y0054533D03*
D70*
X0087124Y0054583D03*
X0087024Y0054583D03*
X0073724Y0042583D03*
X0072924Y0042983D03*
X0072724Y0043083D03*
X0072524Y0043183D03*
X0072224Y0043383D03*
D71*
X0087024Y0041983D03*
D72*
X0086924Y0041933D03*
D73*
X0073824Y0042633D03*
X0086924Y0054633D03*
X0081924Y0057033D03*
D74*
X0066524Y0049383D03*
X0086824Y0041883D03*
D75*
X0073924Y0042583D03*
X0067224Y0049383D03*
X0086824Y0054683D03*
D76*
X0086724Y0041933D03*
D77*
X0086724Y0054683D03*
D78*
X0078224Y0058733D03*
X0078124Y0058733D03*
X0078024Y0058733D03*
X0077924Y0058733D03*
X0077824Y0058733D03*
X0077724Y0058733D03*
X0074124Y0057833D03*
X0073924Y0057733D03*
X0071024Y0055933D03*
X0070924Y0055933D03*
X0070824Y0055833D03*
X0070524Y0055533D03*
X0086524Y0042333D03*
D79*
X0086524Y0054233D03*
D80*
X0078824Y0058683D03*
X0078724Y0058683D03*
X0073424Y0057383D03*
X0073324Y0057283D03*
X0071324Y0056083D03*
X0070124Y0054983D03*
X0086324Y0042383D03*
X0086424Y0042383D03*
D81*
X0086424Y0054183D03*
X0086324Y0054183D03*
D82*
X0079324Y0058583D03*
X0079224Y0058583D03*
X0073024Y0057083D03*
X0072924Y0056983D03*
X0071524Y0056083D03*
X0069824Y0054583D03*
X0086224Y0042383D03*
D83*
X0086124Y0042333D03*
X0086024Y0042333D03*
X0072824Y0056833D03*
X0069724Y0054433D03*
X0069624Y0054333D03*
X0079424Y0058533D03*
X0079524Y0058533D03*
D84*
X0086024Y0054233D03*
X0086124Y0054233D03*
D85*
X0080024Y0058333D03*
X0079924Y0058333D03*
X0079824Y0058433D03*
X0072624Y0056633D03*
X0069524Y0054133D03*
X0085924Y0042333D03*
D86*
X0085924Y0054283D03*
X0067724Y0049383D03*
D87*
X0066824Y0049383D03*
X0071724Y0056083D03*
X0071824Y0056083D03*
X0080124Y0058283D03*
X0085724Y0042283D03*
X0085824Y0042283D03*
D88*
X0085624Y0042233D03*
X0085524Y0042233D03*
X0072524Y0056533D03*
X0080224Y0058233D03*
X0080324Y0058233D03*
D89*
X0085624Y0054333D03*
D90*
X0085524Y0054383D03*
X0085424Y0054383D03*
X0067824Y0049383D03*
D91*
X0085224Y0054433D03*
X0085324Y0054433D03*
D92*
X0080524Y0058133D03*
X0072024Y0056133D03*
X0077624Y0040633D03*
X0077724Y0040633D03*
X0077824Y0040633D03*
X0077924Y0040633D03*
X0078024Y0040633D03*
X0078124Y0040633D03*
X0078224Y0040633D03*
X0078324Y0040633D03*
X0078424Y0040633D03*
X0085124Y0042133D03*
X0085224Y0042133D03*
D93*
X0085024Y0042083D03*
X0072124Y0056083D03*
X0072324Y0056283D03*
X0080624Y0058083D03*
D94*
X0080724Y0058033D03*
X0072224Y0056133D03*
X0084824Y0042033D03*
X0084924Y0042033D03*
D95*
X0084924Y0054533D03*
X0084824Y0054533D03*
D96*
X0080924Y0057883D03*
X0080824Y0057983D03*
X0066924Y0049383D03*
X0084624Y0041983D03*
X0084724Y0041983D03*
D97*
X0084724Y0054583D03*
X0084624Y0054583D03*
X0067924Y0049383D03*
D98*
X0081024Y0057833D03*
X0084324Y0041933D03*
X0084424Y0041933D03*
X0084524Y0041933D03*
D99*
X0084324Y0054683D03*
X0084224Y0054683D03*
D100*
X0084124Y0054733D03*
X0084024Y0054733D03*
X0083924Y0054733D03*
D101*
X0083924Y0041833D03*
X0084024Y0041833D03*
D102*
X0083824Y0041783D03*
X0083724Y0041783D03*
X0083624Y0041783D03*
X0081224Y0057683D03*
D103*
X0081324Y0057633D03*
X0083324Y0041733D03*
X0083424Y0041733D03*
X0083524Y0041733D03*
X0078524Y0041033D03*
D104*
X0083424Y0054833D03*
X0083524Y0054833D03*
D105*
X0083324Y0054883D03*
X0083224Y0054883D03*
X0083124Y0054883D03*
X0068124Y0049383D03*
D106*
X0067024Y0049383D03*
X0081424Y0057583D03*
X0083024Y0041683D03*
X0083124Y0041683D03*
X0083224Y0041683D03*
D107*
X0083024Y0054933D03*
X0082924Y0054933D03*
X0082824Y0054933D03*
D108*
X0070024Y0044883D03*
X0069924Y0044983D03*
X0069524Y0045383D03*
X0078624Y0041183D03*
X0082324Y0041583D03*
X0082424Y0041583D03*
X0082524Y0041583D03*
X0082624Y0041583D03*
D109*
X0082324Y0055033D03*
D110*
X0082224Y0048733D03*
X0074224Y0051333D03*
D111*
X0067424Y0049383D03*
X0082224Y0056483D03*
D112*
X0082124Y0048483D03*
X0074024Y0051183D03*
D113*
X0067324Y0049383D03*
X0074224Y0042683D03*
X0075324Y0042283D03*
X0082124Y0056683D03*
D114*
X0082024Y0048333D03*
X0075124Y0049333D03*
D115*
X0080424Y0050133D03*
D116*
X0080324Y0050183D03*
X0074624Y0051483D03*
D117*
X0080224Y0050183D03*
D118*
X0080124Y0050183D03*
D119*
X0080024Y0050183D03*
D120*
X0079824Y0050133D03*
X0075324Y0051033D03*
D121*
X0075524Y0051033D03*
X0079724Y0050233D03*
D122*
X0072724Y0056783D03*
X0071624Y0056083D03*
X0079624Y0058483D03*
X0079724Y0058483D03*
D123*
X0079624Y0050283D03*
D124*
X0079524Y0050333D03*
X0078524Y0051033D03*
X0075724Y0051033D03*
X0075624Y0051033D03*
D125*
X0079324Y0050483D03*
X0079424Y0050383D03*
X0066424Y0049383D03*
D126*
X0075824Y0051033D03*
X0075924Y0051033D03*
X0079124Y0050533D03*
X0079224Y0050533D03*
D127*
X0079024Y0050583D03*
X0078824Y0050683D03*
X0078724Y0050783D03*
X0078624Y0050883D03*
X0076024Y0050983D03*
D128*
X0078924Y0050633D03*
D129*
X0078624Y0058733D03*
X0078524Y0058733D03*
X0078424Y0058733D03*
X0073624Y0057533D03*
X0073524Y0057433D03*
X0071224Y0056033D03*
X0070224Y0055133D03*
X0066724Y0049433D03*
D130*
X0070324Y0055283D03*
X0070424Y0055383D03*
X0071124Y0055983D03*
X0073724Y0057583D03*
X0073824Y0057683D03*
X0078324Y0058683D03*
D131*
X0078124Y0051533D03*
X0078024Y0051533D03*
X0077924Y0051533D03*
X0077824Y0051533D03*
D132*
X0077724Y0051583D03*
X0077624Y0051583D03*
D133*
X0070724Y0055783D03*
X0070624Y0055683D03*
X0074024Y0057783D03*
X0074224Y0057883D03*
X0074324Y0057983D03*
X0074424Y0057983D03*
X0074624Y0058083D03*
X0077424Y0058783D03*
X0077524Y0058783D03*
X0077624Y0058783D03*
D134*
X0077524Y0045033D03*
D135*
X0074524Y0058033D03*
X0074724Y0058133D03*
X0074924Y0058233D03*
X0075024Y0058233D03*
X0075224Y0058333D03*
X0075524Y0058433D03*
X0075824Y0058533D03*
X0075924Y0058533D03*
X0076224Y0058633D03*
X0076324Y0058633D03*
X0076424Y0058633D03*
X0076524Y0058633D03*
X0076724Y0058733D03*
X0076824Y0058733D03*
X0076924Y0058733D03*
X0077024Y0058733D03*
X0077124Y0058733D03*
X0077224Y0058733D03*
X0077324Y0058733D03*
D136*
X0076824Y0045133D03*
X0076724Y0045133D03*
X0076624Y0045133D03*
X0076524Y0045133D03*
X0076424Y0045133D03*
D137*
X0076224Y0045133D03*
X0076124Y0045133D03*
X0069224Y0049433D03*
D138*
X0067624Y0049433D03*
X0076024Y0042733D03*
D139*
X0075924Y0042633D03*
D140*
X0075824Y0042583D03*
X0067524Y0049383D03*
D141*
X0075724Y0042533D03*
D142*
X0075624Y0042433D03*
D143*
X0075524Y0042333D03*
X0074424Y0042733D03*
D144*
X0074824Y0042533D03*
X0075024Y0042433D03*
X0075124Y0042433D03*
X0075224Y0042333D03*
X0075424Y0042333D03*
D145*
X0075424Y0051083D03*
D146*
X0075224Y0049433D03*
D147*
X0075224Y0051433D03*
D148*
X0075124Y0051533D03*
D149*
X0075024Y0051533D03*
D150*
X0074924Y0051533D03*
D151*
X0074824Y0051483D03*
D152*
X0074724Y0051483D03*
D153*
X0074524Y0051433D03*
D154*
X0074424Y0051433D03*
D155*
X0074324Y0051333D03*
D156*
X0074124Y0042633D03*
D157*
X0074124Y0051283D03*
D158*
X0066224Y0049383D03*
X0073924Y0051083D03*
D159*
X0069124Y0049383D03*
D160*
X0069024Y0049383D03*
D161*
X0068824Y0049433D03*
D162*
X0068724Y0049383D03*
D163*
X0068524Y0049433D03*
D164*
X0068324Y0049433D03*
D165*
X0066624Y0049383D03*
D166*
X0066324Y0049433D03*
D167*
X0172524Y0083813D02*
X0172524Y0084053D01*
X0172524Y0113813D02*
X0172524Y0114053D01*
M02*
