G75*
%MOIN*%
%OFA0B0*%
%FSLAX25Y25*%
%IPPOS*%
%LPD*%
%AMOC8*
5,1,8,0,0,1.08239X$1,22.5*
%
%ADD10C,0.00500*%
%ADD11C,0.08200*%
%ADD12R,0.05524X0.03162*%
%ADD13R,0.04500X0.04800*%
%ADD14C,0.13900*%
%ADD15R,0.12611X0.04343*%
%ADD16R,0.08674X0.06706*%
%ADD17R,0.18910X0.04737*%
%ADD18R,0.14186X0.07099*%
%ADD19R,0.05800X0.03300*%
%ADD20R,0.08200X0.08200*%
%ADD21R,0.07200X0.07200*%
%ADD22C,0.08400*%
D10*
X0062524Y0033933D02*
X0062524Y0233933D01*
X0062527Y0234175D01*
X0062536Y0234416D01*
X0062550Y0234657D01*
X0062571Y0234898D01*
X0062597Y0235138D01*
X0062629Y0235378D01*
X0062667Y0235617D01*
X0062710Y0235854D01*
X0062760Y0236091D01*
X0062815Y0236326D01*
X0062875Y0236560D01*
X0062942Y0236792D01*
X0063013Y0237023D01*
X0063091Y0237252D01*
X0063174Y0237479D01*
X0063262Y0237704D01*
X0063356Y0237927D01*
X0063455Y0238147D01*
X0063560Y0238365D01*
X0063669Y0238580D01*
X0063784Y0238793D01*
X0063904Y0239003D01*
X0064029Y0239209D01*
X0064159Y0239413D01*
X0064294Y0239614D01*
X0064434Y0239811D01*
X0064578Y0240005D01*
X0064727Y0240195D01*
X0064881Y0240381D01*
X0065039Y0240564D01*
X0065201Y0240743D01*
X0065368Y0240918D01*
X0065539Y0241089D01*
X0065714Y0241256D01*
X0065893Y0241418D01*
X0066076Y0241576D01*
X0066262Y0241730D01*
X0066452Y0241879D01*
X0066646Y0242023D01*
X0066843Y0242163D01*
X0067044Y0242298D01*
X0067248Y0242428D01*
X0067454Y0242553D01*
X0067664Y0242673D01*
X0067877Y0242788D01*
X0068092Y0242897D01*
X0068310Y0243002D01*
X0068530Y0243101D01*
X0068753Y0243195D01*
X0068978Y0243283D01*
X0069205Y0243366D01*
X0069434Y0243444D01*
X0069665Y0243515D01*
X0069897Y0243582D01*
X0070131Y0243642D01*
X0070366Y0243697D01*
X0070603Y0243747D01*
X0070840Y0243790D01*
X0071079Y0243828D01*
X0071319Y0243860D01*
X0071559Y0243886D01*
X0071800Y0243907D01*
X0072041Y0243921D01*
X0072282Y0243930D01*
X0072524Y0243933D01*
X0287524Y0243933D01*
X0287766Y0243930D01*
X0288007Y0243921D01*
X0288248Y0243907D01*
X0288489Y0243886D01*
X0288729Y0243860D01*
X0288969Y0243828D01*
X0289208Y0243790D01*
X0289445Y0243747D01*
X0289682Y0243697D01*
X0289917Y0243642D01*
X0290151Y0243582D01*
X0290383Y0243515D01*
X0290614Y0243444D01*
X0290843Y0243366D01*
X0291070Y0243283D01*
X0291295Y0243195D01*
X0291518Y0243101D01*
X0291738Y0243002D01*
X0291956Y0242897D01*
X0292171Y0242788D01*
X0292384Y0242673D01*
X0292594Y0242553D01*
X0292800Y0242428D01*
X0293004Y0242298D01*
X0293205Y0242163D01*
X0293402Y0242023D01*
X0293596Y0241879D01*
X0293786Y0241730D01*
X0293972Y0241576D01*
X0294155Y0241418D01*
X0294334Y0241256D01*
X0294509Y0241089D01*
X0294680Y0240918D01*
X0294847Y0240743D01*
X0295009Y0240564D01*
X0295167Y0240381D01*
X0295321Y0240195D01*
X0295470Y0240005D01*
X0295614Y0239811D01*
X0295754Y0239614D01*
X0295889Y0239413D01*
X0296019Y0239209D01*
X0296144Y0239003D01*
X0296264Y0238793D01*
X0296379Y0238580D01*
X0296488Y0238365D01*
X0296593Y0238147D01*
X0296692Y0237927D01*
X0296786Y0237704D01*
X0296874Y0237479D01*
X0296957Y0237252D01*
X0297035Y0237023D01*
X0297106Y0236792D01*
X0297173Y0236560D01*
X0297233Y0236326D01*
X0297288Y0236091D01*
X0297338Y0235854D01*
X0297381Y0235617D01*
X0297419Y0235378D01*
X0297451Y0235138D01*
X0297477Y0234898D01*
X0297498Y0234657D01*
X0297512Y0234416D01*
X0297521Y0234175D01*
X0297524Y0233933D01*
X0297524Y0033933D01*
X0297521Y0033691D01*
X0297512Y0033450D01*
X0297498Y0033209D01*
X0297477Y0032968D01*
X0297451Y0032728D01*
X0297419Y0032488D01*
X0297381Y0032249D01*
X0297338Y0032012D01*
X0297288Y0031775D01*
X0297233Y0031540D01*
X0297173Y0031306D01*
X0297106Y0031074D01*
X0297035Y0030843D01*
X0296957Y0030614D01*
X0296874Y0030387D01*
X0296786Y0030162D01*
X0296692Y0029939D01*
X0296593Y0029719D01*
X0296488Y0029501D01*
X0296379Y0029286D01*
X0296264Y0029073D01*
X0296144Y0028863D01*
X0296019Y0028657D01*
X0295889Y0028453D01*
X0295754Y0028252D01*
X0295614Y0028055D01*
X0295470Y0027861D01*
X0295321Y0027671D01*
X0295167Y0027485D01*
X0295009Y0027302D01*
X0294847Y0027123D01*
X0294680Y0026948D01*
X0294509Y0026777D01*
X0294334Y0026610D01*
X0294155Y0026448D01*
X0293972Y0026290D01*
X0293786Y0026136D01*
X0293596Y0025987D01*
X0293402Y0025843D01*
X0293205Y0025703D01*
X0293004Y0025568D01*
X0292800Y0025438D01*
X0292594Y0025313D01*
X0292384Y0025193D01*
X0292171Y0025078D01*
X0291956Y0024969D01*
X0291738Y0024864D01*
X0291518Y0024765D01*
X0291295Y0024671D01*
X0291070Y0024583D01*
X0290843Y0024500D01*
X0290614Y0024422D01*
X0290383Y0024351D01*
X0290151Y0024284D01*
X0289917Y0024224D01*
X0289682Y0024169D01*
X0289445Y0024119D01*
X0289208Y0024076D01*
X0288969Y0024038D01*
X0288729Y0024006D01*
X0288489Y0023980D01*
X0288248Y0023959D01*
X0288007Y0023945D01*
X0287766Y0023936D01*
X0287524Y0023933D01*
X0072524Y0023933D01*
X0072282Y0023936D01*
X0072041Y0023945D01*
X0071800Y0023959D01*
X0071559Y0023980D01*
X0071319Y0024006D01*
X0071079Y0024038D01*
X0070840Y0024076D01*
X0070603Y0024119D01*
X0070366Y0024169D01*
X0070131Y0024224D01*
X0069897Y0024284D01*
X0069665Y0024351D01*
X0069434Y0024422D01*
X0069205Y0024500D01*
X0068978Y0024583D01*
X0068753Y0024671D01*
X0068530Y0024765D01*
X0068310Y0024864D01*
X0068092Y0024969D01*
X0067877Y0025078D01*
X0067664Y0025193D01*
X0067454Y0025313D01*
X0067248Y0025438D01*
X0067044Y0025568D01*
X0066843Y0025703D01*
X0066646Y0025843D01*
X0066452Y0025987D01*
X0066262Y0026136D01*
X0066076Y0026290D01*
X0065893Y0026448D01*
X0065714Y0026610D01*
X0065539Y0026777D01*
X0065368Y0026948D01*
X0065201Y0027123D01*
X0065039Y0027302D01*
X0064881Y0027485D01*
X0064727Y0027671D01*
X0064578Y0027861D01*
X0064434Y0028055D01*
X0064294Y0028252D01*
X0064159Y0028453D01*
X0064029Y0028657D01*
X0063904Y0028863D01*
X0063784Y0029073D01*
X0063669Y0029286D01*
X0063560Y0029501D01*
X0063455Y0029719D01*
X0063356Y0029939D01*
X0063262Y0030162D01*
X0063174Y0030387D01*
X0063091Y0030614D01*
X0063013Y0030843D01*
X0062942Y0031074D01*
X0062875Y0031306D01*
X0062815Y0031540D01*
X0062760Y0031775D01*
X0062710Y0032012D01*
X0062667Y0032249D01*
X0062629Y0032488D01*
X0062597Y0032728D01*
X0062571Y0032968D01*
X0062550Y0033209D01*
X0062536Y0033450D01*
X0062527Y0033691D01*
X0062524Y0033933D01*
D11*
X0137524Y0032933D03*
X0147524Y0033933D03*
X0157524Y0032933D03*
X0167524Y0033933D03*
X0177524Y0032933D03*
X0187524Y0033933D03*
X0197524Y0032933D03*
X0207524Y0033933D03*
X0207524Y0043933D03*
X0197524Y0042933D03*
X0187524Y0043933D03*
X0177524Y0042933D03*
X0167524Y0043933D03*
X0157524Y0042933D03*
X0147524Y0043933D03*
X0137524Y0042933D03*
X0227524Y0042933D03*
X0237524Y0043933D03*
X0247524Y0042933D03*
X0257524Y0043933D03*
X0267524Y0042933D03*
X0267524Y0032933D03*
X0257524Y0033933D03*
X0247524Y0032933D03*
X0237524Y0033933D03*
X0227524Y0032933D03*
X0277524Y0033933D03*
X0277524Y0043933D03*
X0242524Y0128233D03*
X0242524Y0139633D03*
X0212524Y0139633D03*
X0212524Y0128233D03*
X0217024Y0163933D03*
X0218024Y0173933D03*
X0217024Y0183933D03*
X0217524Y0223933D03*
X0227524Y0224933D03*
X0237524Y0223933D03*
X0247524Y0224933D03*
X0257524Y0223933D03*
X0267524Y0224933D03*
X0257524Y0233933D03*
X0267524Y0234933D03*
X0277524Y0233933D03*
X0277524Y0223933D03*
X0247524Y0234933D03*
X0237524Y0233933D03*
X0227524Y0234933D03*
X0217524Y0233933D03*
X0207524Y0234933D03*
X0207524Y0224933D03*
X0192524Y0223933D03*
X0182524Y0224933D03*
X0172524Y0223933D03*
X0162524Y0224933D03*
X0152524Y0223933D03*
X0142524Y0224933D03*
X0132524Y0223933D03*
X0122524Y0224933D03*
X0112524Y0223933D03*
X0102524Y0223933D03*
X0102524Y0233933D03*
X0112524Y0233933D03*
X0122524Y0234933D03*
X0132524Y0233933D03*
X0142524Y0234933D03*
X0152524Y0233933D03*
X0162524Y0234933D03*
X0172524Y0233933D03*
X0182524Y0234933D03*
X0192524Y0233933D03*
D12*
X0186500Y0113933D03*
X0186500Y0108933D03*
X0186500Y0103933D03*
X0186500Y0098933D03*
X0186500Y0093933D03*
X0186500Y0088933D03*
X0186500Y0083933D03*
X0208547Y0083933D03*
X0208547Y0088933D03*
X0208547Y0093933D03*
X0208547Y0098933D03*
X0208547Y0103933D03*
X0208547Y0108933D03*
X0208547Y0113933D03*
D13*
X0175870Y0113933D03*
X0169177Y0113933D03*
X0169177Y0083933D03*
X0175870Y0083933D03*
D14*
X0257524Y0058083D03*
X0257524Y0109783D03*
D15*
X0240941Y0097713D03*
X0240941Y0087870D03*
X0240941Y0079996D03*
X0240941Y0070154D03*
D16*
X0290870Y0189287D03*
X0290870Y0197161D03*
X0290870Y0205035D03*
X0290870Y0212909D03*
D17*
X0267957Y0137870D03*
X0267957Y0129996D03*
D18*
X0288429Y0120547D03*
X0288429Y0147319D03*
D19*
X0157524Y0102433D03*
X0157524Y0098933D03*
X0157524Y0095433D03*
X0147524Y0095433D03*
X0147524Y0098933D03*
X0147524Y0102433D03*
D20*
X0218024Y0193933D03*
D21*
X0277524Y0178933D03*
X0277524Y0168933D03*
D22*
X0132524Y0195933D03*
X0132524Y0204933D03*
X0132524Y0213933D03*
X0132524Y0053933D03*
X0122524Y0053933D03*
X0112524Y0053933D03*
X0102524Y0053933D03*
X0102524Y0043933D03*
X0112524Y0043933D03*
X0122524Y0043933D03*
X0157524Y0053933D03*
X0167524Y0053933D03*
X0177524Y0053933D03*
X0187524Y0053933D03*
X0197524Y0053933D03*
X0207524Y0053933D03*
M02*
